<svg width="439" height="379" viewBox="0 0 439 379" fill="none" xmlns="http://www.w3.org/2000/svg">
<g filter="url(#filter0_d_1_111)">
<rect x="4" width="431" height="371" rx="21" fill="white"/>
</g>
<path d="M150.922 75V70.392L147.434 63.8H149.37L151.818 68.488L154.234 63.8H156.17L152.698 70.392V75H150.922ZM156.178 71.08C156.178 68.264 157.522 66.84 159.81 66.84C162.098 66.84 163.442 68.264 163.442 71.08C163.442 73.736 162.098 75.16 159.81 75.16C157.522 75.16 156.178 73.736 156.178 71.08ZM159.81 73.624C161.346 73.624 161.794 72.36 161.794 71.08C161.794 69.624 161.346 68.376 159.81 68.376C158.274 68.376 157.826 69.624 157.826 71.08C157.826 72.36 158.274 73.624 159.81 73.624ZM166.535 70.984C166.535 72.392 167.063 73.624 168.311 73.624C169.863 73.624 170.327 72.52 170.327 70.36V67H171.991V75H171.047C170.791 75 170.471 73.928 170.375 73.24C170.055 74.44 169.383 75.16 167.991 75.16C165.671 75.16 164.887 73.272 164.887 71V67H166.535V70.984ZM180.978 75.16C178.882 75.16 177.49 73.752 177.49 71.048C177.49 68.248 178.882 66.84 180.978 66.84C182.93 66.84 184.098 67.816 184.482 69.592L182.85 69.832C182.626 69.048 182.194 68.376 180.978 68.376C179.474 68.376 179.138 69.864 179.138 71.048C179.138 72.136 179.474 73.624 180.978 73.624C182.242 73.624 182.674 72.872 182.866 72.152L184.498 72.392C184.13 74.152 182.93 75.176 180.978 75.16ZM187.299 69.656L185.795 69.176C186.163 67.88 187.331 66.84 189.219 66.84C191.411 66.84 192.483 68.488 192.483 70.312V75H191.539C191.251 75 190.931 73.8 190.835 73.112C190.499 74.392 189.763 75.16 188.323 75.16C186.563 75.16 185.395 74.072 185.379 72.536C185.379 70.312 188.547 70.216 190.819 70.216C190.803 69.144 190.275 68.376 189.219 68.376C188.163 68.376 187.603 68.808 187.299 69.656ZM187.043 72.456C187.043 73.08 187.539 73.672 188.595 73.672C189.939 73.672 190.611 72.872 190.771 71.304C188.947 71.32 187.043 71.4 187.043 72.456ZM194.579 75V67H195.507C195.763 67 196.083 68.072 196.179 68.76C196.499 67.56 197.171 66.84 198.563 66.84C200.899 66.84 201.683 68.712 201.683 71V75H200.019V71C200.019 69.608 199.507 68.376 198.243 68.376C196.707 68.376 196.227 69.464 196.227 71.624V75H194.579ZM210.572 75.16C208.476 75.16 207.084 73.752 207.084 71.048C207.084 68.248 208.476 66.84 210.572 66.84C212.524 66.84 213.692 67.816 214.076 69.592L212.444 69.832C212.22 69.048 211.788 68.376 210.572 68.376C209.068 68.376 208.732 69.864 208.732 71.048C208.732 72.136 209.068 73.624 210.572 73.624C211.836 73.624 212.268 72.872 212.46 72.152L214.092 72.392C213.724 74.152 212.524 75.176 210.572 75.16ZM215.533 75V67H216.461C216.733 67 217.053 68.136 217.149 68.824C217.597 67.576 218.429 66.84 219.837 66.84V68.488C218.301 68.488 217.229 69.464 217.181 71.624V75H215.533ZM226.037 72.504L227.653 72.744C227.205 74.28 226.069 75.192 224.245 75.16C222.165 75.16 220.773 73.736 220.773 71.048C220.773 68.248 222.165 66.84 224.245 66.84C226.021 66.84 227.813 67.832 227.749 71.384H222.373C222.437 72.44 222.821 73.656 224.245 73.656C225.365 73.656 225.829 73.16 226.037 72.504ZM224.245 68.328C223.093 68.328 222.613 69.176 222.437 70.12H226.053C225.813 68.744 225.077 68.328 224.245 68.328ZM230.846 69.656L229.342 69.176C229.71 67.88 230.878 66.84 232.766 66.84C234.958 66.84 236.03 68.488 236.03 70.312V75H235.086C234.798 75 234.478 73.8 234.382 73.112C234.046 74.392 233.31 75.16 231.87 75.16C230.11 75.16 228.942 74.072 228.926 72.536C228.926 70.312 232.094 70.216 234.366 70.216C234.35 69.144 233.822 68.376 232.766 68.376C231.71 68.376 231.15 68.808 230.846 69.656ZM230.59 72.456C230.59 73.08 231.086 73.672 232.142 73.672C233.486 73.672 234.158 72.872 234.318 71.304C232.494 71.32 230.59 71.4 230.59 72.456ZM237.188 67H238.676V66.984C238.676 66.456 239.06 64.824 239.396 64.824H240.324V67H242.42V68.536H240.324V72.248C240.324 72.968 240.324 73.464 241.348 73.464H242.42V75H240.596C239.14 75 238.676 73.912 238.676 72.152V68.536H237.188V67ZM248.802 72.504L250.418 72.744C249.97 74.28 248.834 75.192 247.01 75.16C244.93 75.16 243.538 73.736 243.538 71.048C243.538 68.248 244.93 66.84 247.01 66.84C248.786 66.84 250.578 67.832 250.514 71.384H245.138C245.202 72.44 245.586 73.656 247.01 73.656C248.13 73.656 248.594 73.16 248.802 72.504ZM247.01 68.328C245.858 68.328 245.378 69.176 245.202 70.12H248.818C248.578 68.744 247.842 68.328 247.01 68.328ZM255.742 78.2V76.648H256.638C257.614 76.648 257.87 76.36 258.046 75.88L258.382 74.92L255.31 67H257.022L259.15 72.712L261.166 67H262.894L259.55 76.456C259.134 77.64 258.446 78.2 257.342 78.2H255.742ZM263.646 71.08C263.646 68.264 264.99 66.84 267.278 66.84C269.566 66.84 270.91 68.264 270.91 71.08C270.91 73.736 269.566 75.16 267.278 75.16C264.99 75.16 263.646 73.736 263.646 71.08ZM267.278 73.624C268.814 73.624 269.262 72.36 269.262 71.08C269.262 69.624 268.814 68.376 267.278 68.376C265.742 68.376 265.294 69.624 265.294 71.08C265.294 72.36 265.742 73.624 267.278 73.624ZM274.004 70.984C274.004 72.392 274.532 73.624 275.78 73.624C277.332 73.624 277.796 72.52 277.796 70.36V67H279.46V75H278.516C278.26 75 277.94 73.928 277.844 73.24C277.524 74.44 276.852 75.16 275.46 75.16C273.14 75.16 272.356 73.272 272.356 71V67H274.004V70.984ZM281.564 75V67H282.492C282.764 67 283.084 68.136 283.18 68.824C283.628 67.576 284.46 66.84 285.868 66.84V68.488C284.332 68.488 283.26 69.464 283.212 71.624V75H281.564ZM290.615 71.08C290.615 68.264 291.959 66.84 294.247 66.84C296.535 66.84 297.879 68.264 297.879 71.08C297.879 73.736 296.535 75.16 294.247 75.16C291.959 75.16 290.615 73.736 290.615 71.08ZM294.247 73.624C295.783 73.624 296.231 72.36 296.231 71.08C296.231 69.624 295.783 68.376 294.247 68.376C292.711 68.376 292.263 69.624 292.263 71.08C292.263 72.36 292.711 73.624 294.247 73.624ZM300.406 75L298.342 67H300.086L301.526 73.24L303.142 67H304.454L306.054 73.224L307.51 67H309.27L307.206 75H305.11L303.798 69.64L302.502 75H300.406ZM310.579 75V67H311.507C311.763 67 312.083 68.072 312.179 68.76C312.499 67.56 313.171 66.84 314.563 66.84C316.899 66.84 317.683 68.712 317.683 71V75H316.019V71C316.019 69.608 315.507 68.376 314.243 68.376C312.707 68.376 312.227 69.464 312.227 71.624V75H310.579ZM324.924 69.656L323.42 69.176C323.788 67.88 324.956 66.84 326.844 66.84C329.036 66.84 330.108 68.488 330.108 70.312V75H329.164C328.876 75 328.556 73.8 328.46 73.112C328.124 74.392 327.388 75.16 325.948 75.16C324.188 75.16 323.02 74.072 323.004 72.536C323.004 70.312 326.172 70.216 328.444 70.216C328.428 69.144 327.9 68.376 326.844 68.376C325.788 68.376 325.228 68.808 324.924 69.656ZM324.668 72.456C324.668 73.08 325.164 73.672 326.22 73.672C327.564 73.672 328.236 72.872 328.396 71.304C326.572 71.32 324.668 71.4 324.668 72.456ZM332.204 75V67H333.132C333.404 67 333.724 68.136 333.82 68.824C334.268 67.576 335.1 66.84 336.508 66.84V68.488C334.972 68.488 333.9 69.464 333.852 71.624V75H332.204ZM337.141 67H338.629V66.984C338.629 66.456 339.013 64.824 339.349 64.824H340.277V67H342.373V68.536H340.277V72.248C340.277 72.968 340.277 73.464 341.301 73.464H342.373V75H340.549C339.093 75 338.629 73.912 338.629 72.152V68.536H337.141V67ZM343.716 64.712C343.716 64.008 344.068 63.672 344.82 63.672C345.508 63.672 345.876 64.008 345.876 64.712C345.876 65.352 345.508 65.72 344.82 65.72C344.068 65.72 343.716 65.352 343.716 64.712ZM343.972 67H345.62V75H343.972V67ZM350.775 75.16C348.679 75.16 347.287 73.752 347.287 71.048C347.287 68.248 348.679 66.84 350.775 66.84C352.727 66.84 353.895 67.816 354.279 69.592L352.647 69.832C352.423 69.048 351.991 68.376 350.775 68.376C349.271 68.376 348.935 69.864 348.935 71.048C348.935 72.136 349.271 73.624 350.775 73.624C352.039 73.624 352.471 72.872 352.663 72.152L354.295 72.392C353.927 74.152 352.727 75.176 350.775 75.16ZM355.736 63.8H357.384V75H355.736V63.8ZM364.349 72.504L365.965 72.744C365.517 74.28 364.381 75.192 362.557 75.16C360.477 75.16 359.085 73.736 359.085 71.048C359.085 68.248 360.477 66.84 362.557 66.84C364.333 66.84 366.125 67.832 366.061 71.384H360.685C360.749 72.44 361.133 73.656 362.557 73.656C363.677 73.656 364.141 73.16 364.349 72.504ZM362.557 68.328C361.405 68.328 360.925 69.176 360.749 70.12H364.365C364.125 68.744 363.389 68.328 362.557 68.328ZM370.953 67H372.441V66.984C372.441 66.456 372.825 64.824 373.161 64.824H374.089V67H376.185V68.536H374.089V72.248C374.089 72.968 374.089 73.464 375.113 73.464H376.185V75H374.361C372.905 75 372.441 73.912 372.441 72.152V68.536H370.953V67ZM377.24 71.08C377.24 68.264 378.584 66.84 380.872 66.84C383.16 66.84 384.504 68.264 384.504 71.08C384.504 73.736 383.16 75.16 380.872 75.16C378.584 75.16 377.24 73.736 377.24 71.08ZM380.872 73.624C382.408 73.624 382.856 72.36 382.856 71.08C382.856 69.624 382.408 68.376 380.872 68.376C379.336 68.376 378.888 69.624 378.888 71.08C378.888 72.36 379.336 73.624 380.872 73.624ZM385.662 71.08C385.662 68.264 387.006 66.84 389.294 66.84C391.582 66.84 392.926 68.264 392.926 71.08C392.926 73.736 391.582 75.16 389.294 75.16C387.006 75.16 385.662 73.736 385.662 71.08ZM389.294 73.624C390.83 73.624 391.278 72.36 391.278 71.08C391.278 69.624 390.83 68.376 389.294 68.376C387.758 68.376 387.31 69.624 387.31 71.08C387.31 72.36 387.758 73.624 389.294 73.624ZM394.804 63.8H396.468V67.928L396.18 71.912H395.124L394.804 67.928V63.8ZM394.548 74.104C394.548 73.48 394.884 73.112 395.636 73.112C396.324 73.112 396.708 73.48 396.708 74.104C396.708 74.808 396.324 75.16 395.636 75.16C394.884 75.16 394.548 74.808 394.548 74.104Z" fill="black"/>
<ellipse cx="86.5" cy="85" rx="41.5" ry="37" fill="#D9D9D9"/>
<path fill-rule="evenodd" clip-rule="evenodd" d="M100.644 85.9901C100.089 85.8983 99.5535 85.7921 99.066 85.6359C97.6604 85.1503 96.7441 84.4193 95.8784 83.7268C94.6586 82.7196 93.7898 81.6464 93.1891 80.5268C92.931 80.0456 92.8433 79.4879 92.2571 79.0614C90.9278 78.1685 87.0299 78.2842 84.9601 78.441C83.5742 78.5548 83.2876 79.275 82.9729 79.8079C82.7109 80.2507 82.5393 80.6984 82.3953 81.1522C82.0524 81.2568 81.6657 81.3418 81.2968 81.4158C77.2783 81.9879 76.572 83.0486 75.0371 84.687C72.4447 87.0683 65.4101 88.0008 64.3475 90.8191C63.6629 92.6798 65.6097 94.4302 67.617 95.9769C69.4863 97.6666 72.096 98.4775 76.2521 98.0783C80.1502 97.6723 83.8965 96.9932 87.7262 96.4683C89.5809 96.2565 91.4328 95.7059 93.384 95.8979C97.4041 96.3171 101.535 96.5141 105.655 96.4598C111.439 96.5683 111.439 93.9907 110.845 91.9944C110.429 88.8878 107.054 86.893 100.644 85.9901Z" fill="#53D86A"/>
<path fill-rule="evenodd" clip-rule="evenodd" d="M101.031 90.4854C101.514 90.6338 101.921 90.8588 102.247 91.0956C100.884 91.0299 99.5242 90.9539 98.167 90.8675C98.3446 90.8148 98.5241 90.7633 98.7075 90.7146C99.3765 90.5396 100.283 90.256 101.031 90.4854ZM78.3936 92.3553C78.1439 92.31 78.0473 92.1332 77.95 92.0319C77.6449 91.7142 77.3665 91.3911 77.0769 91.0703C78.1767 90.9248 79.2463 90.7633 80.3857 90.6856C81.6106 90.6023 82.854 90.5821 84.0905 90.6008C86.5948 90.6387 89.0759 90.8289 91.5382 91.0325C93.9974 91.2362 96.4567 91.4317 98.9332 91.5852C101.359 91.7354 103.794 91.8455 106.232 91.942C106.706 91.9608 107.496 92.0399 107.877 91.8669C108.179 91.7298 108.188 91.4769 107.811 91.3655C107.576 91.296 107.235 91.295 106.966 91.2789C106.628 91.2588 106.289 91.2453 105.948 91.2348C105.81 91.2305 105.671 91.2266 105.532 91.2227C106.646 91.0277 107.809 90.9214 109.016 90.9511C109.084 91.1436 109.392 91.3418 109.56 91.5006C109.854 91.7778 110.083 92.0584 110.233 92.3598C110.548 92.99 110.561 93.6439 110.473 94.2866C110.391 94.8223 110.216 95.415 109.31 95.7946C108.625 96.0818 107.658 96.1883 106.761 96.2217C105.718 96.2606 104.659 96.219 103.625 96.1541C102.175 96.0631 100.718 95.9428 99.2966 95.7814C96.5432 95.4689 93.9039 94.9716 91.4689 94.2975C90.2811 93.9687 89.1482 93.599 87.9444 93.2827C86.7177 92.9604 85.4125 92.7104 84.0421 92.5552C82.5082 92.3815 80.905 92.3073 79.3284 92.3501C79.0549 92.3576 78.6597 92.4037 78.3936 92.3553ZM76.6162 92.0327C76.7774 92.2756 76.9007 92.5528 77.2447 92.7569C77.5855 92.959 78.0995 93.0304 78.6321 93.0484C79.2742 93.07 79.9239 93.0561 80.5672 93.0672C81.8872 93.09 83.189 93.1896 84.4509 93.3721C85.6265 93.5424 86.718 93.8076 87.7695 94.1022C88.7418 94.3745 89.6853 94.6669 90.6579 94.9383C90.3992 94.9934 90.1432 95.0529 89.8859 95.1049C89.3461 95.2136 88.8032 95.3187 88.2576 95.421C87.1822 95.6229 86.1019 95.8198 85.0107 96.0027C82.8105 96.3717 80.5739 96.694 78.3103 96.9686C77.2308 97.0996 76.1359 97.2525 75.0144 97.2743C74.0199 97.2935 73.0987 97.1631 72.2967 96.8885C70.6331 96.3192 69.3095 95.4972 68.2395 94.6865C67.6039 94.2048 67.0492 93.6988 66.5904 93.1755C66.3583 92.9108 66.1478 92.6421 65.9584 92.3704C65.8695 92.2427 65.7853 92.1143 65.7055 91.9854C65.6704 91.9287 65.6368 91.8718 65.6034 91.8149C67.3046 91.5739 69.0259 91.3564 70.7876 91.2356C71.7282 91.171 72.6814 91.1384 73.6323 91.1432C74.1043 91.1454 74.576 91.1574 75.0455 91.18C75.2982 91.1921 75.5499 91.2078 75.8006 91.2272C75.9041 91.2352 76.0106 91.247 76.1173 91.2557C76.2804 91.5152 76.4448 91.7743 76.6162 92.0327ZM111.781 91.0011C111.872 90.915 111.911 90.8303 111.944 90.7366C111.969 90.665 112.035 90.5644 111.977 90.4716C111.912 90.3675 111.734 90.2746 111.607 90.1859C111.466 90.0879 111.325 89.9897 111.185 89.8917C110.904 89.6955 110.623 89.499 110.343 89.3024C109.2 88.4998 108.064 87.6949 106.926 86.8905C105.917 86.1766 104.924 85.4563 103.884 84.752C102.995 84.1496 102.025 83.5574 100.808 83.089C99.2685 82.4968 97.4353 82.2178 95.5207 82C95.3116 81.8993 95.0323 81.8443 94.7337 81.8555C94.3118 81.6333 93.9765 81.4781 93.8246 81.1957C93.7517 81.0605 93.7747 80.6803 93.4909 80.6002C93.1538 80.5052 92.9776 80.631 92.8847 80.7728C92.5737 81.2475 92.9307 81.8856 93.7523 82.3611C93.4061 82.9164 92.9471 83.7057 92.1285 84.1506C91.2519 84.6271 90.0397 84.7754 88.7315 84.7851C86.2371 84.8038 83.7455 84.3733 81.8427 83.6274C81.2644 83.4006 80.7273 83.1474 80.2413 82.8782C79.877 82.6761 79.4458 82.3643 79.1607 82.1287C79.1607 82.0368 78.9271 81.9407 81.305 81.8665C83.6826 81.7923 83.8629 80.2807 83.9159 80.075C83.9588 79.9079 84.1416 79.6486 83.888 79.5124C83.7803 79.4545 83.5597 79.4452 83.4232 79.4846C83.166 79.5587 83.0813 79.7483 83.0005 79.8771C82.8873 80.0576 82.5169 81.1774 81.8152 81.3071C81.4866 81.3677 81.1098 81.3689 80.7624 81.3801C80.333 81.394 79.903 81.4043 79.4758 81.4274C79.3181 81.436 79.146 81.4596 78.9904 81.4603C78.8892 81.4607 78.7848 81.438 78.687 81.422C78.3569 81.3677 78.027 81.4083 77.6869 81.4295C74.6799 81.6172 71.5837 82.0454 69.0188 82.816C66.7581 83.4952 65.1654 84.4718 64.1144 85.6137C63.0421 86.7791 62.4275 88.0393 61.9124 89.2799C61.7398 89.6957 61.5892 90.1132 61.4597 90.5323C61.3346 90.9372 61.1781 91.351 61.1406 91.7601C61.1258 91.9219 61.2091 92.0722 61.3373 92.2201C61.4816 92.3865 61.8228 92.4521 62.1501 92.5298C62.8685 92.7004 63.6263 92.8327 64.4071 92.9264C64.8841 93.3293 65.2855 93.7478 65.6081 94.1823C65.4884 94.2924 65.4859 94.4568 65.4629 94.5638C65.4058 94.8303 65.3814 95.0982 65.3763 95.3658C65.366 95.9023 65.4355 96.4383 65.4899 96.974C65.5452 97.5173 65.7288 99.661 65.7587 99.9228C65.782 100.126 65.7506 100.411 65.9814 100.591C66.3359 100.868 67.211 100.859 67.6163 100.634C77.6869 101.639 96.6168 101.337 104.241 100.831C105.233 100.765 104.921 100.838 105.174 100.722C105.363 100.634 105.524 100.485 105.576 100.364C105.646 100.204 105.533 100.059 105.335 99.9288C105.127 99.7921 105.089 99.5711 105.012 99.4087C104.829 99.0249 104.738 97.3392 104.653 97.1524C104.626 97.0943 104.601 97.0327 104.57 96.9711C105.968 97.0326 107.425 97.0326 108.756 96.8155C109.51 96.6923 110.214 96.4989 110.755 96.2227C111.411 95.8883 111.776 95.4672 111.964 95.0278C112.206 94.4611 112.257 93.8742 112.21 93.2981C112.143 92.6173 111.9 91.927 111.297 91.3019C111.495 91.2162 111.662 91.1129 111.781 91.0011Z" fill="#595BD4"/>
<path fill-rule="evenodd" clip-rule="evenodd" d="M77.184 68.9353C77.5156 68.7702 77.9396 68.6471 78.4032 68.6078C77.9794 68.706 77.5652 68.8085 77.184 68.9353ZM76.5345 70.3596C76.4759 70.2337 76.4365 70.1066 76.4241 69.9796C76.4982 70.0319 76.6166 70.0668 76.7495 70.0849C76.6636 70.1741 76.5906 70.2661 76.5345 70.3596ZM98.7198 72.3333C98.3371 71.5937 96.5517 70.1711 96.1296 69.8973C95.6714 69.2193 98.1706 68.6756 96.8113 68.1455C96.1961 67.9063 95.3827 67.8216 94.6199 67.7368C89.3373 67.1478 83.6617 67.4448 78.7622 68.5279C78.017 68.4551 77.2405 68.5974 76.6986 68.8474C74.1526 70.0355 77.6223 72.1792 78.381 73.5187C79.6827 75.0122 77.0013 75.2634 77.2888 76.5271C77.5123 77.1799 78.9365 77.3525 80.1384 77.4511C80.3309 77.472 80.5884 77.4753 80.6504 77.5698C80.8453 78.1216 81.5129 78.6474 82.4092 79.0044C82.3308 79.1121 82.3904 79.243 82.667 79.3377C85.171 80.2017 88.3284 80.6341 91.4513 80.5563C95.1733 80.4637 97.0982 79.4732 97.5627 79.2181C100.131 77.608 99.8237 75.4835 99.2999 73.5646C98.935 72.2278 99.3977 73.6435 98.7198 72.3333Z" fill="#53D86A"/>
<path fill-rule="evenodd" clip-rule="evenodd" d="M87.2432 66.179C87.3604 66.0092 87.6914 65.9071 88.0706 65.9282C88.4062 65.9466 88.7653 66.1012 88.7245 66.2719C88.7169 66.3048 88.7066 66.3357 88.6945 66.3648L88.6961 66.365L88.6976 66.3651L88.6894 66.3764C88.6643 66.4307 88.6298 66.4794 88.5786 66.5254C88.5136 66.6135 88.4509 66.702 88.3889 66.7907C88.4785 66.7889 88.5699 66.7913 88.6625 66.7993C88.7584 66.6854 88.8549 66.5717 88.9508 66.4574C89.0537 66.3354 89.1261 66.1787 89.3294 66.0843C89.5893 65.9638 90.0408 65.9388 90.358 66.0249C90.6929 66.1157 90.8125 66.2772 90.7395 66.4503C90.7026 66.5385 90.5755 66.6 90.4185 66.6386L90.4015 66.6426L90.2805 66.7756C90.3177 66.7682 90.3561 66.7613 90.3976 66.7557C90.4627 66.7468 90.5268 66.7412 90.5894 66.7388C90.7619 66.5936 90.952 66.4526 91.1481 66.3143C91.3738 66.1552 91.815 66.0876 92.1851 66.1882C92.5161 66.2781 92.6941 66.5144 92.4568 66.6696C92.2765 66.7875 92.1058 66.9077 91.9375 67.0291C91.9663 67.0314 91.995 67.0344 92.0226 67.0383C92.0356 67.0303 92.0489 67.0222 92.0628 67.0142C92.2465 66.9086 92.4598 66.8293 92.6792 66.7415C92.8844 66.6589 92.9791 66.5292 93.2487 66.4666C93.5883 66.3879 93.9974 66.4256 94.1995 66.5824C94.6328 66.9181 93.9054 67.1632 93.44 67.3666C93.8446 67.2493 94.2661 67.1422 94.6982 67.0496C94.9412 66.9976 95.1878 66.9475 95.4384 66.9041C95.81 66.84 96.1105 66.8605 96.4155 66.9798C96.5517 67.0332 96.6191 67.1499 96.5565 67.2276C96.4352 67.3767 96.2433 67.4672 95.9071 67.5102C95.6705 67.5405 95.4284 67.561 95.1918 67.5927C94.7953 67.6456 94.4104 67.71 94.037 67.7904C94.0639 67.7981 94.0897 67.8065 94.1133 67.816C94.392 67.7741 94.6758 67.7379 94.9609 67.707C95.4338 67.6555 95.915 67.6208 96.3985 67.599L96.5592 67.5921C97.1387 67.5662 97.8356 67.5186 98.1915 67.7762C98.3083 67.8611 98.321 68.0012 98.1915 68.0852C97.9433 68.2466 97.6964 68.2787 97.2861 68.2817C97.69 68.3016 98.0934 68.3262 98.495 68.355C98.7719 68.3746 99.0484 68.3968 99.3241 68.4214L99.4615 68.4339C99.7974 68.4651 100.172 68.4832 100.46 68.5735C101.089 68.7705 100.794 69.1543 100.097 69.1953C99.7602 69.2149 99.3861 69.1487 99.0557 69.1178C98.7346 69.0879 98.4127 69.0614 98.0889 69.0383C97.9215 69.0261 97.7539 69.0154 97.586 69.0056C97.9279 69.0285 98.2674 69.0608 98.5979 69.1065L98.6899 69.1194C99.3287 69.2098 100.191 69.3538 100.39 69.6708C100.511 69.8634 100.181 70.0315 99.7807 70.0427C99.4085 70.0531 99.0984 69.9501 98.7828 69.8741C98.5525 69.8189 98.3186 69.7777 98.0704 69.7423C97.8141 69.7058 97.5527 69.6756 97.2894 69.6509C97.5118 69.7079 97.7288 69.7704 97.9367 69.8404L98.0323 69.8732C98.5855 70.0646 99.4288 70.3608 99.2339 70.7195C99.1725 70.8326 98.9011 70.9406 98.6402 70.929C97.9612 70.8997 97.5866 70.564 97.0746 70.3841C96.9408 70.3372 96.7943 70.2909 96.6409 70.2458C97.4171 70.6756 98.0347 71.1724 98.5047 71.6856C99.5371 72.8147 99.854 73.8603 99.8615 75.0742L99.8618 75.1119C99.8631 75.7815 99.8304 76.4633 99.69 77.13C99.5595 77.7458 99.3205 78.3538 98.7186 78.9115C97.7106 79.8469 95.7461 80.5752 93.5795 80.8524C91.1686 81.1611 88.4739 80.9198 86.4991 80.2075C85.9953 80.0258 86.6635 79.6314 87.1779 79.7991C89.2335 80.4683 91.8916 80.6804 94.2507 80.2273C96.122 79.8682 97.6286 79.0956 98.2674 78.2059C98.6738 77.6401 98.7921 77.0366 98.9374 76.4468L98.9471 76.4076C99.1005 75.7908 99.1892 75.1697 99.1879 74.5488C99.1861 73.3956 98.8294 72.4464 97.7366 71.4004C97.2228 70.9077 96.5559 70.4521 95.7594 70.0522C95.5177 70.0751 95.2607 70.043 95.0165 70.0309C94.8919 70.0246 94.7672 70.0187 94.6425 70.0133C94.7699 70.0516 94.8949 70.0913 95.0175 70.132L95.1784 70.1859C95.6826 70.3535 96.3217 70.5443 96.1922 70.8682C96.1571 70.9558 95.9691 71.0362 95.787 71.0561C95.1264 71.1291 94.6725 70.8311 94.2264 70.6542C93.8382 70.5004 93.4324 70.3627 93.0188 70.2247C92.9246 70.1935 92.8302 70.1623 92.7349 70.1315C92.8245 70.1799 92.9113 70.2291 92.9964 70.2788L93.1219 70.3527C93.5017 70.5734 94.0494 70.8602 93.7111 71.1463C93.6152 71.2271 93.4106 71.2808 93.2124 71.279C92.531 71.2725 92.2598 70.9133 91.9403 70.6865C91.6652 70.4921 91.3668 70.309 91.0579 70.1258C90.9728 70.0757 90.8872 70.0255 90.8004 69.9753C89.369 70.0098 87.9426 70.0976 86.5412 70.238C85.5786 70.3345 84.6318 70.4595 83.6919 70.5963L83.6138 70.6078C83.1051 70.6839 82.581 70.7812 82.2146 70.948C82.1622 71.063 82.2022 71.1843 82.2524 71.2991L82.2914 71.387C82.4521 71.7544 82.5617 72.1151 82.4797 72.4924C82.3946 72.8815 82.1422 73.2315 81.8342 73.593C81.6883 73.7634 81.5373 73.7325 81.4856 73.9154C81.446 74.0547 81.4705 74.1984 81.4977 74.3389L81.5204 74.4579C81.577 74.7697 81.6057 75.1099 81.1654 75.3672C81.0971 75.4066 80.9506 75.3909 80.9019 75.3515C80.8828 75.3357 80.8622 75.3206 80.8398 75.3059C80.6277 75.1633 80.3024 75.0819 79.9302 75.0505C79.883 75.0466 79.9015 75.0172 79.9411 75.0148C80.2555 74.9975 80.5536 75.0341 80.8069 75.1095C80.6867 74.9168 79.7571 75.0105 79.4518 75.048L79.4412 75.0492C79.0601 75.0967 78.6996 75.1739 78.3818 75.2832C77.7425 75.5028 77.373 75.8454 77.3915 76.2143C77.4101 76.5769 77.8135 76.9122 78.5065 77.0858C78.8409 77.1695 79.2212 77.2098 79.5998 77.2081C79.9947 77.2063 80.3463 77.1258 80.7421 77.1372C80.9709 77.1436 81.1461 77.2577 81.0138 77.3571C80.9255 77.4235 80.8105 77.4758 80.6776 77.5158C81.0017 77.8628 81.4154 78.1939 81.8923 78.4992C82.1562 78.6687 82.4554 78.8251 82.7847 78.968C83.0416 79.0795 83.5987 79.2087 83.5672 79.3948C83.5563 79.4619 83.4816 79.5028 83.3499 79.5278C82.9405 79.6054 82.4424 79.3379 82.1686 79.2088L82.1468 79.1986C81.8054 79.0407 81.4941 78.8661 81.2229 78.6809C80.7421 78.352 80.4437 77.9812 80.3203 77.5919C79.6636 77.6836 78.7942 77.5975 78.2584 77.485C76.5745 77.1318 76.0241 76.0789 77.0476 75.3779C77.2458 75.2422 77.4938 75.1262 77.7764 75.0324C77.7144 75.0166 77.6562 74.9964 77.6044 74.9709C77.318 74.8296 77.1154 74.6453 76.9145 74.4753L76.8903 74.455C76.7119 74.3054 76.5436 74.1535 76.3858 73.9992L76.3271 73.9412C75.9748 73.5895 75.6661 73.4357 75.4148 73.0659C75.1732 72.7091 74.9827 72.3455 74.8593 71.9756L74.8265 71.8778C74.7551 71.6631 74.6876 71.4337 74.7397 71.2158C74.3811 71.2701 74.0205 71.3036 73.6657 71.222C73.4317 71.1683 73.3025 71.0116 73.3825 70.8991C73.4407 70.8163 73.5378 70.7512 73.6612 70.7002C73.5877 70.683 73.5186 70.661 73.4579 70.6367L73.4049 70.6153C73.19 70.5286 73.1747 70.3639 73.3051 70.2553C73.3179 70.2449 73.3307 70.2342 73.3428 70.2238C73.4669 70.1208 73.7232 70.0534 73.9764 70.0552C74.0173 70.0555 74.0582 70.0555 74.0998 70.0552C73.9815 70.043 73.8658 70.0243 73.7558 69.9929C73.2597 69.8513 73.3224 69.4675 73.9227 69.3998C74.1746 69.3716 74.4527 69.3832 74.7301 69.4135C74.7199 69.4108 74.7097 69.4081 74.6994 69.4052C74.4898 69.3455 74.3139 69.2288 74.3338 69.1092C74.3555 68.9768 74.4475 68.8824 74.6994 68.813C74.9181 68.753 75.2275 68.7474 75.4449 68.813C75.6335 68.8703 75.8182 68.9335 75.9959 69.0015C75.8176 68.8997 75.6629 68.789 75.6002 68.6714C75.5229 68.5251 75.652 68.3657 75.9359 68.2885C76.1622 68.2271 76.4013 68.2339 76.6148 68.2814C76.6033 68.2045 76.6436 68.1261 76.7535 68.0567C76.9786 67.9142 77.3877 67.8323 77.7438 67.9362C77.7905 67.9498 77.8531 67.9733 77.9139 68.0021C77.7956 67.8272 77.9023 67.6438 78.3057 67.5648C78.5519 67.5165 78.885 67.5408 79.0985 67.6242C78.963 67.2838 80.0452 67.0335 80.4658 67.3853C80.5614 67.465 80.6559 67.5489 80.7403 67.6347L80.7715 67.6669L80.7748 67.6664L80.7533 67.6428L80.7312 67.6192C80.6144 67.493 80.4652 67.3618 80.4244 67.225C80.3645 67.0225 80.5587 66.8305 81.0329 66.8008C81.278 66.7854 81.5504 66.837 81.7147 66.9273C81.6257 66.6132 82.3813 66.385 82.9254 66.6195C83.1829 66.7305 83.3206 66.8928 83.484 67.0353C83.5769 67.1157 83.6713 67.1959 83.7642 67.2766C83.7878 67.2636 83.8132 67.2505 83.8402 67.2377C83.7028 67.0466 83.596 66.8507 83.5058 66.6536C83.4201 66.4678 83.6202 66.2748 84.0332 66.2223C84.4085 66.1742 84.8784 66.2817 84.9622 66.4672C85.0209 66.5978 85.0908 66.7269 85.1674 66.8554C85.2197 66.8495 85.2715 66.8453 85.3226 66.8424C85.3272 66.8182 85.332 66.794 85.3371 66.7698L85.3574 66.684C85.4022 66.4878 85.4473 66.2638 85.6679 66.097C86.0446 65.8121 87.0099 65.9302 87.0202 66.2671C87.026 66.4414 86.8732 66.6141 86.8199 66.7866C86.7969 66.8617 86.7836 66.9376 86.776 67.0136C86.8789 66.7613 87.0202 66.5123 87.1836 66.2671C87.203 66.2377 87.2233 66.2084 87.2432 66.179ZM78.9146 75.9083C79.7617 75.8475 80.5357 76.0667 81.0377 76.374C81.1291 76.43 81.0689 76.5094 80.9866 76.5566C80.927 76.5913 80.8471 76.5955 80.7569 76.6008C80.6534 76.607 80.5224 76.5681 80.477 76.5262C80.1541 76.2271 79.5783 76.0379 78.9146 75.9216C78.9024 75.9195 78.8986 75.9094 78.9146 75.9083ZM80.0885 70.5475L80.1142 70.5347C80.2855 70.4522 80.0146 70.3261 79.8428 70.4088C79.6621 70.4959 79.5417 70.6017 79.4261 70.7089C79.316 70.8111 79.6467 70.9014 79.7574 70.7988L79.8077 70.7522C79.8869 70.6796 79.9711 70.608 80.0885 70.5475ZM77.7099 70.3781C77.9528 70.3591 77.8498 70.1874 77.6079 70.2064C77.2945 70.2309 76.9823 70.2588 76.6689 70.2833C76.426 70.3023 76.529 70.474 76.7709 70.4551C77.0843 70.4305 77.3964 70.4026 77.7099 70.3781ZM92.1814 69.2062C91.9469 69.1698 91.8462 69.3418 92.0795 69.3779C92.402 69.4279 92.7219 69.4791 93.0281 69.5485C93.249 69.5986 93.4436 69.445 93.2215 69.3947C92.8859 69.3185 92.5355 69.261 92.1814 69.2062ZM77.6544 68.9754C77.4252 68.9328 77.3257 69.105 77.5525 69.1471L78.381 69.301C78.6102 69.3435 78.7097 69.1714 78.483 69.1293L77.6544 68.9754ZM95.0746 68.5572L95.0444 68.5484C94.8365 68.4859 94.644 68.64 94.8507 68.7022C94.9721 68.7386 95.1194 68.7634 95.2305 68.8069L95.2538 68.8165C95.4332 68.8951 95.705 68.7694 95.5249 68.6905C95.3933 68.6328 95.2269 68.6007 95.0746 68.5572Z" fill="#595BD4"/>
<path fill-rule="evenodd" clip-rule="evenodd" d="M88.7112 77.8071C89.4941 77.3848 90.8125 77.3553 91.9049 77.4609C92.6057 77.5287 93.2881 77.6416 94.0001 77.6835C94.3327 77.703 94.6686 77.7089 95.0036 77.7061C95.3325 77.7032 95.662 77.6724 95.9901 77.6782C96.0403 77.679 96.0594 77.7098 96.0158 77.7223C95.5658 77.8505 94.96 77.8916 94.4289 77.9168C94.4304 77.935 94.4329 77.9529 94.4383 77.9679C94.4528 78.0082 94.4661 78.0482 94.4767 78.0888C94.5009 78.1802 94.5279 78.2714 94.5548 78.3627C94.6078 78.5423 94.6244 78.7275 94.7176 78.9041L94.7339 78.9334C94.7557 78.9705 94.7606 79.0039 94.7533 79.0341L94.7748 79.0296L94.8432 79.0142L94.888 79.0045C95.0511 78.9692 95.2069 78.9437 95.3991 78.9522C95.5452 78.9587 95.6678 79.0049 95.6687 79.0774C95.6723 79.4026 94.7285 79.5071 94.1887 79.5695L94.0304 79.5875C93.3429 79.6654 92.6414 79.7335 91.9346 79.75C90.8004 79.7761 89.5258 79.6307 88.7838 79.2036C88.0915 78.8051 87.9647 78.2099 88.7112 77.8071ZM93.8618 79.1733C93.7429 78.6839 92.4472 78.6569 92.0744 78.9673C91.9088 78.5346 89.462 78.9299 89.6532 79.016C90.3786 79.3421 91.4791 79.3715 92.4251 79.3111C92.9071 79.2803 93.3892 79.2303 93.8618 79.1733ZM92.4239 77.8902L92.0983 77.8685L91.97 77.8602C91.1623 77.81 90.2542 77.7841 89.59 78.0245C89.3476 78.1123 89.2111 78.2267 89.1603 78.3496C89.7885 78.3064 90.4191 78.2734 91.0516 78.246L91.224 78.2385C91.6198 78.222 92.0154 78.2045 92.4109 78.1863L92.6917 78.1731L92.9725 78.1595C93.0714 78.1547 93.7375 78.1388 93.8628 78.1495C93.8761 78.0972 93.8936 77.9842 93.9218 77.9333C93.4485 77.9408 92.9773 77.9245 92.5071 77.8954L92.4239 77.8902ZM93.9236 75.702C94.4062 75.8382 95.1419 76.1559 94.6226 76.4937C94.0113 76.7916 93.1311 76.45 92.6974 76.2957C92.2953 76.1759 91.8435 76.4837 92.2166 76.6234C95.3507 77.7008 96.6225 75.7377 94.1678 75.5418C93.8975 75.5203 93.7971 75.6599 93.9236 75.702ZM94.7875 76.276L94.8108 76.2701L94.8184 76.2678C94.832 76.2638 94.8235 76.2642 94.7927 76.2693L94.7693 76.273V76.2806C94.7754 76.2789 94.7818 76.2777 94.7875 76.276ZM88.6047 75.0655V75.0588C88.6056 74.8696 88.8429 74.4374 89.4299 74.4374C89.7964 74.4374 90.0191 74.7316 90.0575 75.0346L90.059 75.047C90.076 75.2356 89.9646 75.6475 89.4299 75.6475C88.8895 75.6475 88.6101 75.2574 88.6047 75.0655ZM97.2453 75.0061V74.9995C97.2444 74.8102 97.0071 74.378 96.4201 74.378C96.0627 74.378 95.8421 74.6577 95.7955 74.9526L95.7925 74.9754C95.7692 75.1575 95.8733 75.5882 96.4201 75.5882C96.9605 75.5882 97.2398 75.198 97.2453 75.0061ZM88.9394 73.1469C89.4184 73.1131 90.0527 73.1773 90.276 73.4034C90.3755 73.5042 90.2578 73.6156 90.007 73.6211C89.4009 73.6346 88.8571 73.572 88.3251 73.755C88.0963 73.8337 87.9036 73.9428 87.7423 74.0516L87.6812 74.093L87.6303 74.1271C87.5208 74.202 87.417 74.2833 87.433 74.3736C87.4379 74.4004 87.3788 74.4258 87.3232 74.4247C86.9743 74.418 86.9367 74.2151 86.9827 74.0932C87.0681 73.8669 87.3038 73.6546 87.6306 73.4835C87.9741 73.3039 88.4271 73.183 88.9394 73.1469ZM95.5365 73.4214C95.8669 73.3229 96.2893 73.285 96.6761 73.2995C97.4389 73.328 98.7189 73.6291 98.5504 74.0618C98.4983 74.1952 98.0986 74.2656 97.8632 74.1916C97.6099 74.112 97.5485 73.9883 97.3599 73.8843C97.2096 73.8012 97.0189 73.7411 96.815 73.6899C96.6137 73.6394 96.381 73.6088 96.1529 73.5976L96.1147 73.5959C95.9773 73.5905 95.2835 73.592 95.3855 73.7122C95.4054 73.7358 95.3301 73.7544 95.2953 73.7366C95.0825 73.6273 95.3234 73.485 95.5365 73.4214Z" fill="#595BD4"/>
<path d="M148.185 87.2H154.093V88.222H149.263V91.428H152.791V92.45H149.263V95.978H154.093V97H148.185V87.2ZM158.187 89.846C159.391 89.846 160.049 90.42 160.371 91.484V87.2H161.379V97H160.791C160.609 97 160.399 96.006 160.371 95.488C160.049 96.566 159.391 97.14 158.187 97.14C156.325 97.14 155.541 95.6 155.541 93.5V93.486C155.555 91.372 156.339 89.846 158.187 89.846ZM158.355 90.784C157.025 90.784 156.549 92.114 156.549 93.5C156.549 94.886 157.025 96.202 158.355 96.202C159.699 96.202 160.273 95.306 160.371 93.654V93.332C160.273 91.68 159.699 90.784 158.355 90.784ZM164.333 93.486C164.333 94.872 164.809 96.202 166.139 96.202C167.623 96.202 168.169 95.124 168.169 93.136V90H169.177V97H168.589C168.393 97 168.169 95.852 168.169 95.446C167.847 96.538 167.189 97.14 165.971 97.14C164.109 97.14 163.325 95.6 163.325 93.514V90H164.333V93.486ZM173.792 97.14C172.112 97.14 170.894 95.922 170.894 93.528C170.894 91.078 172.112 89.86 173.792 89.86C175.416 89.86 176.326 90.714 176.662 92.114L175.682 92.268C175.43 91.47 175.01 90.798 173.792 90.798C172.364 90.798 171.902 92.226 171.902 93.528C171.902 94.774 172.364 96.202 173.792 96.202C175.052 96.202 175.458 95.46 175.682 94.76L176.662 94.928C176.34 96.272 175.416 97.154 173.792 97.14ZM178.893 92.156L177.969 91.89C178.263 90.7 179.257 89.86 180.811 89.86C182.533 89.86 183.513 91.092 183.499 92.646V97H182.911C182.701 97 182.491 95.852 182.491 95.39V95.32C182.141 96.496 181.413 97.14 180.153 97.14C178.613 97.14 177.619 96.23 177.619 94.97C177.619 92.884 180.671 92.884 182.491 92.884V92.618C182.491 91.526 181.889 90.798 180.811 90.798C179.761 90.798 179.145 91.26 178.893 92.156ZM178.627 94.942C178.627 95.642 179.243 96.23 180.251 96.23C181.693 96.23 182.379 95.306 182.477 93.584C180.937 93.584 178.627 93.612 178.627 94.942ZM184.819 90H186.107V89.986C186.107 89.524 186.317 88.376 186.527 88.376H187.115V90H189.075V90.938H187.115V94.802C187.115 95.488 187.101 96.062 188.039 96.062H189.075V97H187.647C186.387 97 186.107 96.09 186.107 94.746V90.938H184.819V90ZM190.493 87.97C190.493 87.48 190.731 87.242 191.235 87.242C191.697 87.242 191.949 87.48 191.949 87.97C191.949 88.404 191.697 88.67 191.235 88.67C190.731 88.67 190.493 88.404 190.493 87.97ZM190.731 90H191.725V97H190.731V90ZM193.508 93.57C193.508 91.106 194.642 89.86 196.588 89.86C198.534 89.86 199.682 91.106 199.682 93.57C199.682 95.894 198.534 97.14 196.588 97.14C194.642 97.14 193.508 95.894 193.508 93.57ZM196.588 96.202C198.002 96.202 198.674 95.18 198.674 93.57C198.674 91.82 198.002 90.798 196.588 90.798C195.188 90.798 194.516 91.82 194.516 93.57C194.516 95.18 195.188 96.202 196.588 96.202ZM201.408 97V90H201.996C202.192 90 202.416 91.148 202.416 91.554C202.738 90.462 203.396 89.86 204.614 89.86C206.476 89.86 207.26 91.4 207.26 93.514V97H206.252V93.514C206.252 92.128 205.776 90.798 204.446 90.798C202.962 90.798 202.416 91.876 202.416 93.864V97H201.408ZM210.051 92.156L209.127 91.89C209.421 90.7 210.415 89.86 211.969 89.86C213.691 89.86 214.671 91.092 214.657 92.646V97H214.069C213.859 97 213.649 95.852 213.649 95.39V95.32C213.299 96.496 212.571 97.14 211.311 97.14C209.771 97.14 208.777 96.23 208.777 94.97C208.777 92.884 211.829 92.884 213.649 92.884V92.618C213.649 91.526 213.047 90.798 211.969 90.798C210.919 90.798 210.303 91.26 210.051 92.156ZM209.785 94.942C209.785 95.642 210.401 96.23 211.409 96.23C212.851 96.23 213.537 95.306 213.635 93.584C212.095 93.584 209.785 93.612 209.785 94.942ZM216.871 87.2H217.879V97H216.871V87.2Z" fill="black"/>
<path d="M93.7966 182.976L95.2526 182.64C95.4126 183.888 96.1966 184.736 97.3326 184.736C98.5966 184.736 99.3646 183.952 99.3646 181.888V174.8H100.869V181.872C100.869 184.192 99.9086 186.16 97.3326 186.16C95.2526 186.16 94.0686 184.624 93.7966 182.976ZM104.343 181.984C104.343 183.472 104.871 184.848 106.263 184.848C107.879 184.848 108.423 183.696 108.423 181.472V178H109.831V186H109.015C108.791 186 108.503 184.88 108.439 184.24C108.103 185.456 107.383 186.16 106.007 186.16C103.767 186.16 102.935 184.336 102.935 182.016V178H104.343V181.984ZM114.977 186.144C113.169 186.144 111.953 185.312 111.473 183.824L112.801 183.44C113.121 184.4 113.953 184.848 114.993 184.848C115.985 184.848 116.545 184.496 116.545 183.824C116.545 182.992 115.505 182.736 114.609 182.512C113.041 182.176 111.761 181.616 111.761 180.128C111.761 178.672 112.833 177.84 114.753 177.84C116.513 177.84 117.537 178.704 117.969 180.16L116.657 180.496C116.337 179.456 115.633 179.136 114.657 179.136C113.745 179.136 113.169 179.504 113.169 180.16C113.169 180.976 114.129 181.184 115.057 181.408C116.593 181.76 117.937 182.224 117.937 183.776C117.937 185.216 116.833 186.144 114.977 186.144ZM118.735 178H120.223V177.984C120.223 177.456 120.543 175.984 120.815 175.984H121.631V178H123.791V179.296H121.631V183.376C121.631 184.112 121.615 184.688 122.655 184.688H123.791V186H122.063C120.623 186 120.223 184.928 120.223 183.28V179.296H118.735V178ZM136.8 182.72L138.32 183.024C137.712 185.024 136.224 186.16 133.92 186.16C130.848 186.16 129.152 184.032 129.152 180.512C129.152 176.672 130.848 174.64 133.92 174.64C136.208 174.64 137.68 175.728 138.32 177.792L136.864 178.288C136.416 176.848 135.408 176.064 133.92 176.064C131.856 176.064 130.656 177.68 130.656 180.512C130.656 183.04 131.856 184.736 133.92 184.736C135.344 184.736 136.336 184 136.8 182.72ZM140.082 186V178H140.882C141.138 178 141.442 179.248 141.49 179.872C141.938 178.576 142.802 177.84 144.242 177.84V179.248C142.61 179.248 141.57 180.304 141.49 182.528V186H140.082ZM150.587 183.616L151.915 183.808C151.483 185.264 150.411 186.192 148.619 186.16C146.651 186.16 145.259 184.752 145.259 182.032C145.259 179.232 146.651 177.84 148.619 177.84C150.347 177.84 152.059 178.848 152.011 182.256H146.587C146.635 183.52 147.115 184.912 148.619 184.912C149.851 184.912 150.331 184.304 150.587 183.616ZM148.619 179.072C147.371 179.072 146.827 180.048 146.651 181.136H150.603C150.395 179.584 149.579 179.072 148.619 179.072ZM155.029 180.56L153.733 180.16C154.101 178.848 155.237 177.84 157.077 177.84C159.157 177.84 160.261 179.376 160.245 181.168V186H159.445C159.173 186 158.885 184.72 158.837 184.112C158.469 185.408 157.685 186.16 156.261 186.16C154.501 186.16 153.333 185.088 153.333 183.6C153.333 181.312 156.661 181.248 158.837 181.248V181.12C158.837 179.968 158.229 179.136 157.077 179.136C155.957 179.136 155.317 179.616 155.029 180.56ZM154.741 183.552C154.741 184.272 155.333 184.896 156.453 184.896C157.941 184.896 158.661 183.968 158.805 182.192C157.013 182.208 154.741 182.272 154.741 183.552ZM161.563 178H163.051V177.984C163.051 177.456 163.371 175.984 163.643 175.984H164.459V178H166.619V179.296H164.459V183.376C164.459 184.112 164.443 184.688 165.483 184.688H166.619V186H164.891C163.451 186 163.051 184.928 163.051 183.28V179.296H161.563V178ZM173.212 183.616L174.54 183.808C174.108 185.264 173.036 186.192 171.244 186.16C169.276 186.16 167.884 184.752 167.884 182.032C167.884 179.232 169.276 177.84 171.244 177.84C172.972 177.84 174.684 178.848 174.636 182.256H169.212C169.26 183.52 169.74 184.912 171.244 184.912C172.476 184.912 172.956 184.304 173.212 183.616ZM171.244 179.072C169.996 179.072 169.452 180.048 169.276 181.136H173.228C173.02 179.584 172.204 179.072 171.244 179.072ZM181.67 180.56L180.374 180.16C180.742 178.848 181.878 177.84 183.718 177.84C185.798 177.84 186.902 179.376 186.886 181.168V186H186.086C185.814 186 185.526 184.72 185.478 184.112C185.11 185.408 184.326 186.16 182.902 186.16C181.142 186.16 179.974 185.088 179.974 183.6C179.974 181.312 183.302 181.248 185.478 181.248V181.12C185.478 179.968 184.87 179.136 183.718 179.136C182.598 179.136 181.958 179.616 181.67 180.56ZM181.382 183.552C181.382 184.272 181.974 184.896 183.094 184.896C184.582 184.896 185.302 183.968 185.446 182.192C183.654 182.208 181.382 182.272 181.382 183.552ZM189.191 186V178H190.007C190.231 178 190.519 179.12 190.583 179.76C190.919 178.544 191.639 177.84 193.031 177.84C195.255 177.84 196.087 179.664 196.087 182.016V186H194.695V182.016C194.695 180.512 194.151 179.136 192.775 179.136C191.143 179.136 190.599 180.304 190.599 182.528V186H189.191ZM201.5 186L205.34 174.8H207.212L211.052 186H209.452L208.54 183.312H203.996L203.084 186H201.5ZM204.428 182H208.092L206.268 176.576L204.428 182ZM215.056 186.16C213.04 186.16 211.648 184.752 211.648 182.048C211.648 179.232 213.04 177.84 215.056 177.84C216.944 177.84 218.064 178.816 218.448 180.512L217.072 180.704C216.816 179.856 216.352 179.136 215.056 179.136C213.472 179.136 213.056 180.704 213.056 182.048C213.056 183.296 213.472 184.848 215.056 184.848C216.4 184.848 216.848 184.048 217.072 183.296L218.448 183.52C218.08 185.168 216.96 186.176 215.056 186.16ZM222.931 186.16C220.915 186.16 219.523 184.752 219.523 182.048C219.523 179.232 220.915 177.84 222.931 177.84C224.819 177.84 225.939 178.816 226.323 180.512L224.947 180.704C224.691 179.856 224.227 179.136 222.931 179.136C221.347 179.136 220.931 180.704 220.931 182.048C220.931 183.296 221.347 184.848 222.931 184.848C224.275 184.848 224.723 184.048 224.947 183.296L226.323 183.52C225.955 185.168 224.835 186.176 222.931 186.16ZM227.398 182.08C227.398 179.264 228.71 177.84 230.966 177.84C233.222 177.84 234.566 179.264 234.566 182.08C234.566 184.736 233.222 186.16 230.966 186.16C228.71 186.16 227.398 184.736 227.398 182.08ZM230.966 184.848C232.55 184.848 233.158 183.648 233.158 182.08C233.158 180.352 232.55 179.136 230.966 179.136C229.414 179.136 228.806 180.352 228.806 182.08C228.806 183.648 229.414 184.848 230.966 184.848ZM237.515 181.984C237.515 183.472 238.043 184.848 239.435 184.848C241.051 184.848 241.595 183.696 241.595 181.472V178H243.003V186H242.187C241.963 186 241.675 184.88 241.611 184.24C241.275 185.456 240.555 186.16 239.179 186.16C236.939 186.16 236.107 184.336 236.107 182.016V178H237.515V181.984ZM245.3 186V178H246.116C246.34 178 246.628 179.12 246.692 179.76C247.028 178.544 247.748 177.84 249.14 177.84C251.364 177.84 252.196 179.664 252.196 182.016V186H250.804V182.016C250.804 180.512 250.26 179.136 248.884 179.136C247.252 179.136 246.708 180.304 246.708 182.528V186H245.3ZM253.594 178H255.082V177.984C255.082 177.456 255.402 175.984 255.674 175.984H256.49V178H258.65V179.296H256.49V183.376C256.49 184.112 256.474 184.688 257.514 184.688H258.65V186H256.922C255.482 186 255.082 184.928 255.082 183.28V179.296H253.594V178ZM259.868 188.656L260.7 185.008H262.428L260.924 188.656H259.868ZM267.695 182.08C267.695 179.264 269.007 177.84 271.263 177.84C273.519 177.84 274.863 179.264 274.863 182.08C274.863 184.736 273.519 186.16 271.263 186.16C269.007 186.16 267.695 184.736 267.695 182.08ZM271.263 184.848C272.847 184.848 273.455 183.648 273.455 182.08C273.455 180.352 272.847 179.136 271.263 179.136C269.711 179.136 269.103 180.352 269.103 182.08C269.103 183.648 269.711 184.848 271.263 184.848ZM276.644 186V178H277.444C277.7 178 278.004 179.248 278.052 179.872C278.5 178.576 279.364 177.84 280.804 177.84V179.248C279.172 179.248 278.132 180.304 278.052 182.528V186H276.644ZM286.35 174.8H287.854V184.576H292.99V186H286.35V174.8ZM293.992 182.08C293.992 179.264 295.304 177.84 297.56 177.84C299.816 177.84 301.16 179.264 301.16 182.08C301.16 184.736 299.816 186.16 297.56 186.16C295.304 186.16 293.992 184.736 293.992 182.08ZM297.56 184.848C299.144 184.848 299.752 183.648 299.752 182.08C299.752 180.352 299.144 179.136 297.56 179.136C296.008 179.136 295.4 180.352 295.4 182.08C295.4 183.648 296.008 184.848 297.56 184.848ZM309.341 186C309.341 188.128 308.061 189.28 305.901 189.28C303.933 189.28 302.909 188.08 302.749 186.72L304.141 186.672C304.285 187.44 304.749 188.192 306.045 188.192C307.325 188.192 307.933 187.424 307.933 186V184.336C307.581 185.504 306.877 186.176 305.517 186.176C303.293 186.176 302.445 184.352 302.445 182.016V182C302.445 179.648 303.293 177.84 305.517 177.84C306.893 177.84 307.597 178.528 307.949 179.744C308.013 179.088 308.301 178 308.525 178H309.341V186ZM305.773 179.136C304.381 179.136 303.853 180.512 303.853 182C303.853 183.504 304.381 184.864 305.773 184.864C307.261 184.864 307.837 183.888 307.933 182C307.837 180.128 307.261 179.136 305.773 179.136ZM311.39 175.696C311.39 175.072 311.694 174.752 312.366 174.752C312.974 174.752 313.31 175.072 313.31 175.696C313.31 176.256 312.974 176.608 312.366 176.608C311.694 176.608 311.39 176.256 311.39 175.696ZM311.662 178H313.054V186H311.662V178ZM315.41 186V178H316.226C316.45 178 316.738 179.12 316.802 179.76C317.138 178.544 317.858 177.84 319.25 177.84C321.474 177.84 322.306 179.664 322.306 182.016V186H320.914V182.016C320.914 180.512 320.37 179.136 318.994 179.136C317.362 179.136 316.818 180.304 316.818 182.528V186H315.41ZM324.728 174.8H326.152V179.408L325.912 183.04H325L324.728 179.408V174.8ZM324.472 185.216C324.472 184.656 324.792 184.32 325.448 184.32C326.056 184.32 326.392 184.656 326.392 185.216C326.392 185.856 326.056 186.16 325.448 186.16C324.792 186.16 324.472 185.856 324.472 185.216ZM109.314 207V202.328L105.794 195.8H107.442L110.082 200.712L112.674 195.8H114.338L110.818 202.328V207H109.314ZM114.46 203.08C114.46 200.264 115.772 198.84 118.028 198.84C120.284 198.84 121.628 200.264 121.628 203.08C121.628 205.736 120.284 207.16 118.028 207.16C115.772 207.16 114.46 205.736 114.46 203.08ZM118.028 205.848C119.612 205.848 120.22 204.648 120.22 203.08C120.22 201.352 119.612 200.136 118.028 200.136C116.476 200.136 115.868 201.352 115.868 203.08C115.868 204.648 116.476 205.848 118.028 205.848ZM124.578 202.984C124.578 204.472 125.106 205.848 126.498 205.848C128.114 205.848 128.658 204.696 128.658 202.472V199H130.066V207H129.25C129.026 207 128.738 205.88 128.674 205.24C128.338 206.456 127.618 207.16 126.242 207.16C124.002 207.16 123.17 205.336 123.17 203.016V199H124.578V202.984ZM137.643 207L135.531 199H137.003L138.603 205.544L140.363 199H141.483L143.227 205.528L144.827 199H146.315L144.203 207H142.395L140.923 201.176L139.451 207H137.643ZM147.593 196.696C147.593 196.072 147.897 195.752 148.569 195.752C149.177 195.752 149.513 196.072 149.513 196.696C149.513 197.256 149.177 197.608 148.569 197.608C147.897 197.608 147.593 197.256 147.593 196.696ZM147.865 199H149.257V207H147.865V199ZM151.613 195.8H153.021V207H151.613V195.8ZM155.332 195.8H156.74V207H155.332V195.8ZM162.266 199H163.754V198.984C163.754 198.456 164.074 196.984 164.346 196.984H165.162V199H167.322V200.296H165.162V204.376C165.162 205.112 165.146 205.688 166.186 205.688H167.322V207H165.594C164.154 207 163.754 205.928 163.754 204.28V200.296H162.266V199ZM174.508 203.016C174.508 201.512 173.964 200.136 172.588 200.136C170.956 200.136 170.412 201.304 170.412 203.528V207H169.004V195.8H170.412V200.696C170.764 199.512 171.468 198.84 172.844 198.84C175.068 198.84 175.9 200.664 175.9 203.016V207H174.508V203.016ZM183.009 204.616L184.337 204.808C183.905 206.264 182.833 207.192 181.041 207.16C179.073 207.16 177.681 205.752 177.681 203.032C177.681 200.232 179.073 198.84 181.041 198.84C182.769 198.84 184.481 199.848 184.433 203.256H179.009C179.057 204.52 179.537 205.912 181.041 205.912C182.273 205.912 182.753 205.304 183.009 204.616ZM181.041 200.072C179.793 200.072 179.249 201.048 179.073 202.136H183.025C182.817 200.584 182.001 200.072 181.041 200.072ZM186.363 207V199H187.179C187.403 199 187.691 200.12 187.755 200.76C188.091 199.544 188.811 198.84 190.203 198.84C192.427 198.84 193.259 200.664 193.259 203.016V207H191.867V203.016C191.867 201.512 191.323 200.136 189.947 200.136C188.315 200.136 187.771 201.304 187.771 203.528V207H186.363ZM200.288 207H199.472V195.8H200.88V200.616C201.232 199.48 201.936 198.824 203.28 198.824C205.52 198.824 206.352 200.648 206.352 202.984V203C206.352 205.352 205.504 207.16 203.28 207.16C201.92 207.16 201.2 206.488 200.864 205.288C200.784 205.944 200.512 207 200.288 207ZM203.024 200.136C201.584 200.136 200.992 201.064 200.88 202.824V203.16C200.992 204.936 201.584 205.848 203.024 205.848C204.416 205.848 204.944 204.472 204.944 203C204.944 201.496 204.416 200.136 203.024 200.136ZM213.103 204.616L214.431 204.808C213.999 206.264 212.927 207.192 211.135 207.16C209.167 207.16 207.775 205.752 207.775 203.032C207.775 200.232 209.167 198.84 211.135 198.84C212.863 198.84 214.575 199.848 214.527 203.256H209.103C209.151 204.52 209.631 205.912 211.135 205.912C212.367 205.912 212.847 205.304 213.103 204.616ZM211.135 200.072C209.887 200.072 209.343 201.048 209.167 202.136H213.119C212.911 200.584 212.095 200.072 211.135 200.072ZM221.56 201.56L220.264 201.16C220.632 199.848 221.768 198.84 223.608 198.84C225.688 198.84 226.792 200.376 226.776 202.168V207H225.976C225.704 207 225.416 205.72 225.368 205.112C225 206.408 224.216 207.16 222.792 207.16C221.032 207.16 219.864 206.088 219.864 204.6C219.864 202.312 223.192 202.248 225.368 202.248V202.12C225.368 200.968 224.76 200.136 223.608 200.136C222.488 200.136 221.848 200.616 221.56 201.56ZM221.272 204.552C221.272 205.272 221.864 205.896 222.984 205.896C224.472 205.896 225.192 204.968 225.336 203.192C223.544 203.208 221.272 203.272 221.272 204.552ZM229.898 207H229.082V195.8H230.49V200.616C230.842 199.48 231.546 198.824 232.89 198.824C235.13 198.824 235.962 200.648 235.962 202.984V203C235.962 205.352 235.114 207.16 232.89 207.16C231.53 207.16 230.81 206.488 230.474 205.288C230.394 205.944 230.122 207 229.898 207ZM232.634 200.136C231.194 200.136 230.602 201.064 230.49 202.824V203.16C230.602 204.936 231.194 205.848 232.634 205.848C234.026 205.848 234.554 204.472 234.554 203C234.554 201.496 234.026 200.136 232.634 200.136ZM237.8 195.8H239.208V207H237.8V195.8ZM246.431 204.616L247.759 204.808C247.327 206.264 246.255 207.192 244.463 207.16C242.495 207.16 241.103 205.752 241.103 203.032C241.103 200.232 242.495 198.84 244.463 198.84C246.191 198.84 247.903 199.848 247.855 203.256H242.431C242.479 204.52 242.959 205.912 244.463 205.912C245.695 205.912 246.175 205.304 246.431 204.616ZM244.463 200.072C243.215 200.072 242.671 201.048 242.495 202.136H246.447C246.239 200.584 245.423 200.072 244.463 200.072ZM253 199H254.488V198.984C254.488 198.456 254.808 196.984 255.08 196.984H255.896V199H258.056V200.296H255.896V204.376C255.896 205.112 255.88 205.688 256.92 205.688H258.056V207H256.328C254.888 207 254.488 205.928 254.488 204.28V200.296H253V199ZM259.226 203.08C259.226 200.264 260.538 198.84 262.794 198.84C265.05 198.84 266.394 200.264 266.394 203.08C266.394 205.736 265.05 207.16 262.794 207.16C260.538 207.16 259.226 205.736 259.226 203.08ZM262.794 205.848C264.378 205.848 264.986 204.648 264.986 203.08C264.986 201.352 264.378 200.136 262.794 200.136C261.242 200.136 260.634 201.352 260.634 203.08C260.634 204.648 261.242 205.848 262.794 205.848ZM275.087 207.16C273.071 207.16 271.679 205.752 271.679 203.048C271.679 200.232 273.071 198.84 275.087 198.84C276.975 198.84 278.095 199.816 278.479 201.512L277.103 201.704C276.847 200.856 276.383 200.136 275.087 200.136C273.503 200.136 273.087 201.704 273.087 203.048C273.087 204.296 273.503 205.848 275.087 205.848C276.431 205.848 276.879 205.048 277.103 204.296L278.479 204.52C278.111 206.168 276.991 207.176 275.087 207.16ZM280.066 207V199H280.866C281.122 199 281.426 200.248 281.474 200.872C281.922 199.576 282.786 198.84 284.226 198.84V200.248C282.594 200.248 281.554 201.304 281.474 203.528V207H280.066ZM290.572 204.616L291.9 204.808C291.468 206.264 290.396 207.192 288.604 207.16C286.636 207.16 285.244 205.752 285.244 203.032C285.244 200.232 286.636 198.84 288.604 198.84C290.332 198.84 292.044 199.848 291.996 203.256H286.572C286.62 204.52 287.1 205.912 288.604 205.912C289.836 205.912 290.316 205.304 290.572 204.616ZM288.604 200.072C287.356 200.072 286.812 201.048 286.636 202.136H290.588C290.38 200.584 289.564 200.072 288.604 200.072ZM295.013 201.56L293.717 201.16C294.085 199.848 295.221 198.84 297.061 198.84C299.141 198.84 300.245 200.376 300.229 202.168V207H299.429C299.157 207 298.869 205.72 298.821 205.112C298.453 206.408 297.669 207.16 296.245 207.16C294.485 207.16 293.317 206.088 293.317 204.6C293.317 202.312 296.645 202.248 298.821 202.248V202.12C298.821 200.968 298.213 200.136 297.061 200.136C295.941 200.136 295.301 200.616 295.013 201.56ZM294.725 204.552C294.725 205.272 295.317 205.896 296.437 205.896C297.925 205.896 298.645 204.968 298.789 203.192C296.997 203.208 294.725 203.272 294.725 204.552ZM301.547 199H303.035V198.984C303.035 198.456 303.355 196.984 303.627 196.984H304.443V199H306.603V200.296H304.443V204.376C304.443 205.112 304.427 205.688 305.467 205.688H306.603V207H304.875C303.435 207 303.035 205.928 303.035 204.28V200.296H301.547V199ZM313.197 204.616L314.525 204.808C314.093 206.264 313.021 207.192 311.229 207.16C309.261 207.16 307.869 205.752 307.869 203.032C307.869 200.232 309.261 198.84 311.229 198.84C312.957 198.84 314.669 199.848 314.621 203.256H309.197C309.245 204.52 309.725 205.912 311.229 205.912C312.461 205.912 312.941 205.304 313.197 204.616ZM311.229 200.072C309.981 200.072 309.437 201.048 309.261 202.136H313.213C313.005 200.584 312.189 200.072 311.229 200.072ZM149.656 231.2V229.888H150.504C151.448 229.888 151.688 229.616 151.88 229.088L152.36 227.792L149.336 220H150.76L153.016 225.984L155.192 220H156.616L153.112 229.616C152.728 230.688 152.072 231.2 151.08 231.2H149.656ZM157.484 224.08C157.484 221.264 158.796 219.84 161.052 219.84C163.308 219.84 164.652 221.264 164.652 224.08C164.652 226.736 163.308 228.16 161.052 228.16C158.796 228.16 157.484 226.736 157.484 224.08ZM161.052 226.848C162.636 226.848 163.244 225.648 163.244 224.08C163.244 222.352 162.636 221.136 161.052 221.136C159.5 221.136 158.892 222.352 158.892 224.08C158.892 225.648 159.5 226.848 161.052 226.848ZM167.601 223.984C167.601 225.472 168.129 226.848 169.521 226.848C171.137 226.848 171.681 225.696 171.681 223.472V220H173.089V228H172.273C172.049 228 171.761 226.88 171.697 226.24C171.361 227.456 170.641 228.16 169.265 228.16C167.025 228.16 166.193 226.336 166.193 224.016V220H167.601V223.984ZM175.386 228V220H176.186C176.442 220 176.746 221.248 176.794 221.872C177.242 220.576 178.106 219.84 179.546 219.84V221.248C177.914 221.248 176.874 222.304 176.794 224.528V228H175.386ZM184.484 224.08C184.484 221.264 185.796 219.84 188.052 219.84C190.308 219.84 191.652 221.264 191.652 224.08C191.652 226.736 190.308 228.16 188.052 228.16C185.796 228.16 184.484 226.736 184.484 224.08ZM188.052 226.848C189.636 226.848 190.244 225.648 190.244 224.08C190.244 222.352 189.636 221.136 188.052 221.136C186.5 221.136 185.892 222.352 185.892 224.08C185.892 225.648 186.5 226.848 188.052 226.848ZM194.291 228L192.179 220H193.651L195.251 226.544L197.011 220H198.131L199.875 226.528L201.475 220H202.963L200.851 228H199.043L197.571 222.176L196.099 228H194.291ZM204.433 228V220H205.249C205.473 220 205.761 221.12 205.825 221.76C206.161 220.544 206.881 219.84 208.273 219.84C210.497 219.84 211.329 221.664 211.329 224.016V228H209.937V224.016C209.937 222.512 209.393 221.136 208.017 221.136C206.385 221.136 205.841 222.304 205.841 224.528V228H204.433ZM218.631 222.56L217.335 222.16C217.703 220.848 218.839 219.84 220.679 219.84C222.759 219.84 223.863 221.376 223.847 223.168V228H223.047C222.775 228 222.487 226.72 222.439 226.112C222.071 227.408 221.287 228.16 219.863 228.16C218.103 228.16 216.935 227.088 216.935 225.6C216.935 223.312 220.263 223.248 222.439 223.248V223.12C222.439 221.968 221.831 221.136 220.679 221.136C219.559 221.136 218.919 221.616 218.631 222.56ZM218.343 225.552C218.343 226.272 218.935 226.896 220.055 226.896C221.543 226.896 222.263 225.968 222.407 224.192C220.615 224.208 218.343 224.272 218.343 225.552ZM226.152 228V220H226.952C227.208 220 227.512 221.248 227.56 221.872C228.008 220.576 228.872 219.84 230.312 219.84V221.248C228.68 221.248 227.64 222.304 227.56 224.528V228H226.152ZM230.946 220H232.434V219.984C232.434 219.456 232.754 217.984 233.026 217.984H233.842V220H236.002V221.296H233.842V225.376C233.842 226.112 233.826 226.688 234.866 226.688H236.002V228H234.274C232.834 228 232.434 226.928 232.434 225.28V221.296H230.946V220ZM237.491 217.696C237.491 217.072 237.795 216.752 238.467 216.752C239.075 216.752 239.411 217.072 239.411 217.696C239.411 218.256 239.075 218.608 238.467 218.608C237.795 218.608 237.491 218.256 237.491 217.696ZM237.763 220H239.155V228H237.763V220ZM244.407 228.16C242.391 228.16 240.999 226.752 240.999 224.048C240.999 221.232 242.391 219.84 244.407 219.84C246.295 219.84 247.415 220.816 247.799 222.512L246.423 222.704C246.167 221.856 245.703 221.136 244.407 221.136C242.823 221.136 242.407 222.704 242.407 224.048C242.407 225.296 242.823 226.848 244.407 226.848C245.751 226.848 246.199 226.048 246.423 225.296L247.799 225.52C247.431 227.168 246.311 228.176 244.407 228.16ZM249.386 216.8H250.794V228H249.386V216.8ZM258.017 225.616L259.345 225.808C258.913 227.264 257.841 228.192 256.049 228.16C254.081 228.16 252.689 226.752 252.689 224.032C252.689 221.232 254.081 219.84 256.049 219.84C257.777 219.84 259.489 220.848 259.441 224.256H254.017C254.065 225.52 254.545 226.912 256.049 226.912C257.281 226.912 257.761 226.304 258.017 225.616ZM256.049 221.072C254.801 221.072 254.257 222.048 254.081 223.136H258.033C257.825 221.584 257.009 221.072 256.049 221.072ZM264.219 228.144C262.411 228.144 261.195 227.312 260.715 225.824L262.043 225.44C262.363 226.4 263.195 226.848 264.235 226.848C265.227 226.848 265.787 226.496 265.787 225.824C265.787 224.992 264.747 224.736 263.851 224.512C262.283 224.176 261.003 223.616 261.003 222.128C261.003 220.672 262.075 219.84 263.995 219.84C265.755 219.84 266.779 220.704 267.211 222.16L265.899 222.496C265.579 221.456 264.875 221.136 263.899 221.136C262.987 221.136 262.411 221.504 262.411 222.16C262.411 222.976 263.371 223.184 264.299 223.408C265.835 223.76 267.179 224.224 267.179 225.776C267.179 227.216 266.075 228.144 264.219 228.144ZM269.189 216.8H270.613V221.408L270.373 225.04H269.461L269.189 221.408V216.8ZM268.933 227.216C268.933 226.656 269.253 226.32 269.909 226.32C270.517 226.32 270.853 226.656 270.853 227.216C270.853 227.856 270.517 228.16 269.909 228.16C269.253 228.16 268.933 227.856 268.933 227.216ZM90.5449 249.016V237.8H91.8889L96.9449 246.2V237.8H98.4489V249.016H97.0729L92.0489 240.616V249.016H90.5449ZM100.328 245.08C100.328 242.264 101.64 240.84 103.896 240.84C106.152 240.84 107.496 242.264 107.496 245.08C107.496 247.736 106.152 249.16 103.896 249.16C101.64 249.16 100.328 247.736 100.328 245.08ZM103.896 247.848C105.48 247.848 106.088 246.648 106.088 245.08C106.088 243.352 105.48 242.136 103.896 242.136C102.344 242.136 101.736 243.352 101.736 245.08C101.736 246.648 102.344 247.848 103.896 247.848ZM108.29 241H109.778V240.984C109.778 240.456 110.098 238.984 110.37 238.984H111.186V241H113.346V242.296H111.186V246.376C111.186 247.112 111.17 247.688 112.21 247.688H113.346V249H111.618C110.178 249 109.778 247.928 109.778 246.28V242.296H108.29V241ZM118.531 245.08C118.531 242.264 119.843 240.84 122.099 240.84C124.355 240.84 125.699 242.264 125.699 245.08C125.699 247.736 124.355 249.16 122.099 249.16C119.843 249.16 118.531 247.736 118.531 245.08ZM122.099 247.848C123.683 247.848 124.291 246.648 124.291 245.08C124.291 243.352 123.683 242.136 122.099 242.136C120.547 242.136 119.939 243.352 119.939 245.08C119.939 246.648 120.547 247.848 122.099 247.848ZM127.48 249V241H128.296C128.52 241 128.808 242.12 128.872 242.76C129.208 241.544 129.928 240.84 131.32 240.84C133.544 240.84 134.376 242.664 134.376 245.016V249H132.984V245.016C132.984 243.512 132.44 242.136 131.064 242.136C129.432 242.136 128.888 243.304 128.888 245.528V249H127.48ZM136.574 237.8H137.982V249H136.574V237.8ZM139.781 252.2V250.888H140.629C141.573 250.888 141.813 250.616 142.005 250.088L142.485 248.792L139.461 241H140.885L143.141 246.984L145.317 241H146.741L143.237 250.616C142.853 251.688 142.197 252.2 141.205 252.2H139.781ZM151.336 241H152.824V240.984C152.824 240.456 153.144 238.984 153.416 238.984H154.232V241H156.392V242.296H154.232V246.376C154.232 247.112 154.216 247.688 155.256 247.688H156.392V249H154.664C153.224 249 152.824 247.928 152.824 246.28V242.296H151.336V241ZM163.578 245.016C163.578 243.512 163.034 242.136 161.658 242.136C160.026 242.136 159.482 243.304 159.482 245.528V249H158.074V237.8H159.482V242.696C159.834 241.512 160.538 240.84 161.914 240.84C164.138 240.84 164.97 242.664 164.97 245.016V249H163.578V245.016ZM168.256 243.56L166.96 243.16C167.328 241.848 168.464 240.84 170.304 240.84C172.384 240.84 173.488 242.376 173.472 244.168V249H172.672C172.4 249 172.112 247.72 172.064 247.112C171.696 248.408 170.912 249.16 169.488 249.16C167.728 249.16 166.56 248.088 166.56 246.6C166.56 244.312 169.888 244.248 172.064 244.248V244.12C172.064 242.968 171.456 242.136 170.304 242.136C169.184 242.136 168.544 242.616 168.256 243.56ZM167.968 246.552C167.968 247.272 168.56 247.896 169.68 247.896C171.168 247.896 171.888 246.968 172.032 245.192C170.24 245.208 167.968 245.272 167.968 246.552ZM174.79 241H176.278V240.984C176.278 240.456 176.598 238.984 176.87 238.984H177.686V241H179.846V242.296H177.686V246.376C177.686 247.112 177.67 247.688 178.71 247.688H179.846V249H178.118C176.678 249 176.278 247.928 176.278 246.28V242.296H174.79V241ZM181.063 251.656L181.895 248.008H183.623L182.119 251.656H181.063ZM188.89 252.2V250.888H189.738C190.682 250.888 190.922 250.616 191.114 250.088L191.594 248.792L188.57 241H189.994L192.25 246.984L194.426 241H195.85L192.346 250.616C191.962 251.688 191.306 252.2 190.314 252.2H188.89ZM196.718 245.08C196.718 242.264 198.03 240.84 200.286 240.84C202.542 240.84 203.886 242.264 203.886 245.08C203.886 247.736 202.542 249.16 200.286 249.16C198.03 249.16 196.718 247.736 196.718 245.08ZM200.286 247.848C201.87 247.848 202.478 246.648 202.478 245.08C202.478 243.352 201.87 242.136 200.286 242.136C198.734 242.136 198.126 243.352 198.126 245.08C198.126 246.648 198.734 247.848 200.286 247.848ZM206.836 244.984C206.836 246.472 207.364 247.848 208.756 247.848C210.372 247.848 210.916 246.696 210.916 244.472V241H212.324V249H211.508C211.284 249 210.996 247.88 210.932 247.24C210.596 248.456 209.876 249.16 208.5 249.16C206.26 249.16 205.428 247.336 205.428 245.016V241H206.836V244.984ZM221.532 249.16C219.516 249.16 218.124 247.752 218.124 245.048C218.124 242.232 219.516 240.84 221.532 240.84C223.42 240.84 224.54 241.816 224.924 243.512L223.548 243.704C223.292 242.856 222.828 242.136 221.532 242.136C219.948 242.136 219.532 243.704 219.532 245.048C219.532 246.296 219.948 247.848 221.532 247.848C222.876 247.848 223.324 247.048 223.548 246.296L224.924 246.52C224.556 248.168 223.436 249.176 221.532 249.16ZM227.599 243.56L226.303 243.16C226.671 241.848 227.807 240.84 229.647 240.84C231.727 240.84 232.831 242.376 232.815 244.168V249H232.015C231.743 249 231.455 247.72 231.407 247.112C231.039 248.408 230.255 249.16 228.831 249.16C227.071 249.16 225.903 248.088 225.903 246.6C225.903 244.312 229.231 244.248 231.407 244.248V244.12C231.407 242.968 230.799 242.136 229.647 242.136C228.527 242.136 227.887 242.616 227.599 243.56ZM227.311 246.552C227.311 247.272 227.903 247.896 229.023 247.896C230.511 247.896 231.231 246.968 231.375 245.192C229.583 245.208 227.311 245.272 227.311 246.552ZM235.121 249V241H235.937C236.161 241 236.449 242.12 236.513 242.76C236.849 241.544 237.569 240.84 238.961 240.84C241.185 240.84 242.017 242.664 242.017 245.016V249H240.625V245.016C240.625 243.512 240.081 242.136 238.705 242.136C237.073 242.136 236.529 243.304 236.529 245.528V249H235.121ZM247.43 241H248.918V240.984C248.918 240.456 249.238 238.984 249.51 238.984H250.326V241H252.486V242.296H250.326V246.376C250.326 247.112 250.31 247.688 251.35 247.688H252.486V249H250.758C249.318 249 248.918 247.928 248.918 246.28V242.296H247.43V241ZM259.672 245.016C259.672 243.512 259.128 242.136 257.752 242.136C256.12 242.136 255.576 243.304 255.576 245.528V249H254.168V237.8H255.576V242.696C255.928 241.512 256.632 240.84 258.008 240.84C260.232 240.84 261.064 242.664 261.064 245.016V249H259.672V245.016ZM268.173 246.616L269.501 246.808C269.069 248.264 267.997 249.192 266.205 249.16C264.237 249.16 262.845 247.752 262.845 245.032C262.845 242.232 264.237 240.84 266.205 240.84C267.933 240.84 269.645 241.848 269.597 245.256H264.173C264.221 246.52 264.701 247.912 266.205 247.912C267.437 247.912 267.917 247.304 268.173 246.616ZM266.205 242.072C264.957 242.072 264.413 243.048 264.237 244.136H268.189C267.981 242.584 267.165 242.072 266.205 242.072ZM271.527 249V241H272.343C272.567 241 272.855 242.12 272.919 242.76C273.255 241.544 273.975 240.84 275.367 240.84C277.591 240.84 278.423 242.664 278.423 245.016V249H277.031V245.016C277.031 243.512 276.487 242.136 275.111 242.136C273.479 242.136 272.935 243.304 272.935 245.528V249H271.527ZM287.532 249.16C285.516 249.16 284.124 247.752 284.124 245.048C284.124 242.232 285.516 240.84 287.532 240.84C289.42 240.84 290.54 241.816 290.924 243.512L289.548 243.704C289.292 242.856 288.828 242.136 287.532 242.136C285.948 242.136 285.532 243.704 285.532 245.048C285.532 246.296 285.948 247.848 287.532 247.848C288.876 247.848 289.324 247.048 289.548 246.296L290.924 246.52C290.556 248.168 289.436 249.176 287.532 249.16ZM292.511 249V241H293.311C293.567 241 293.871 242.248 293.919 242.872C294.367 241.576 295.231 240.84 296.671 240.84V242.248C295.039 242.248 293.999 243.304 293.919 245.528V249H292.511ZM303.017 246.616L304.345 246.808C303.913 248.264 302.841 249.192 301.049 249.16C299.081 249.16 297.689 247.752 297.689 245.032C297.689 242.232 299.081 240.84 301.049 240.84C302.777 240.84 304.489 241.848 304.441 245.256H299.017C299.065 246.52 299.545 247.912 301.049 247.912C302.281 247.912 302.761 247.304 303.017 246.616ZM301.049 242.072C299.801 242.072 299.257 243.048 299.081 244.136H303.033C302.825 242.584 302.009 242.072 301.049 242.072ZM307.459 243.56L306.163 243.16C306.531 241.848 307.667 240.84 309.507 240.84C311.587 240.84 312.691 242.376 312.675 244.168V249H311.875C311.603 249 311.315 247.72 311.267 247.112C310.899 248.408 310.115 249.16 308.691 249.16C306.931 249.16 305.763 248.088 305.763 246.6C305.763 244.312 309.091 244.248 311.267 244.248V244.12C311.267 242.968 310.659 242.136 309.507 242.136C308.387 242.136 307.747 242.616 307.459 243.56ZM307.171 246.552C307.171 247.272 307.763 247.896 308.883 247.896C310.371 247.896 311.091 246.968 311.235 245.192C309.443 245.208 307.171 245.272 307.171 246.552ZM313.993 241H315.481V240.984C315.481 240.456 315.801 238.984 316.073 238.984H316.889V241H319.049V242.296H316.889V246.376C316.889 247.112 316.873 247.688 317.913 247.688H319.049V249H317.321C315.881 249 315.481 247.928 315.481 246.28V242.296H313.993V241ZM325.642 246.616L326.97 246.808C326.538 248.264 325.466 249.192 323.674 249.16C321.706 249.16 320.314 247.752 320.314 245.032C320.314 242.232 321.706 240.84 323.674 240.84C325.402 240.84 327.114 241.848 327.066 245.256H321.642C321.69 246.52 322.17 247.912 323.674 247.912C324.906 247.912 325.386 247.304 325.642 246.616ZM323.674 242.072C322.426 242.072 321.882 243.048 321.706 244.136H325.658C325.45 242.584 324.634 242.072 323.674 242.072ZM328.532 251.656L329.364 248.008H331.092L329.588 251.656H328.532ZM142.999 266.08C142.999 263.264 144.311 261.84 146.567 261.84C148.823 261.84 150.167 263.264 150.167 266.08C150.167 268.736 148.823 270.16 146.567 270.16C144.311 270.16 142.999 268.736 142.999 266.08ZM146.567 268.848C148.151 268.848 148.759 267.648 148.759 266.08C148.759 264.352 148.151 263.136 146.567 263.136C145.015 263.136 144.407 264.352 144.407 266.08C144.407 267.648 145.015 268.848 146.567 268.848ZM151.949 270V262H152.749C153.005 262 153.309 263.248 153.357 263.872C153.805 262.576 154.669 261.84 156.109 261.84V263.248C154.477 263.248 153.437 264.304 153.357 266.528V270H151.949ZM161.286 259.696C161.286 259.072 161.59 258.752 162.246 258.752C162.854 258.752 163.19 259.072 163.19 259.696C163.19 260.256 162.854 260.608 162.246 260.608C161.59 260.608 161.286 260.256 161.286 259.696ZM161.542 262H162.934V270.48C162.934 272.112 162.534 273.2 161.094 273.2H160.214V271.888H160.518C161.558 271.888 161.542 271.312 161.542 270.576V262ZM164.656 266.08C164.656 263.264 165.968 261.84 168.224 261.84C170.48 261.84 171.824 263.264 171.824 266.08C171.824 268.736 170.48 270.16 168.224 270.16C165.968 270.16 164.656 268.736 164.656 266.08ZM168.224 268.848C169.808 268.848 170.416 267.648 170.416 266.08C170.416 264.352 169.808 263.136 168.224 263.136C166.672 263.136 166.064 264.352 166.064 266.08C166.064 267.648 166.672 268.848 168.224 268.848ZM173.413 259.696C173.413 259.072 173.717 258.752 174.389 258.752C174.997 258.752 175.333 259.072 175.333 259.696C175.333 260.256 174.997 260.608 174.389 260.608C173.717 260.608 173.413 260.256 173.413 259.696ZM173.685 262H175.077V270H173.685V262ZM177.433 270V262H178.249C178.473 262 178.761 263.12 178.825 263.76C179.161 262.544 179.881 261.84 181.273 261.84C183.497 261.84 184.329 263.664 184.329 266.016V270H182.937V266.016C182.937 264.512 182.393 263.136 181.017 263.136C179.385 263.136 178.841 264.304 178.841 266.528V270H177.433ZM190.031 266.08C190.031 263.264 191.343 261.84 193.599 261.84C195.855 261.84 197.199 263.264 197.199 266.08C197.199 268.736 195.855 270.16 193.599 270.16C191.343 270.16 190.031 268.736 190.031 266.08ZM193.599 268.848C195.183 268.848 195.791 267.648 195.791 266.08C195.791 264.352 195.183 263.136 193.599 263.136C192.047 263.136 191.439 264.352 191.439 266.08C191.439 267.648 192.047 268.848 193.599 268.848ZM197.993 262H199.481V261.984C199.481 261.456 199.801 259.984 200.073 259.984H200.889V262H203.049V263.296H200.889V267.376C200.889 268.112 200.873 268.688 201.913 268.688H203.049V270H201.321C199.881 270 199.481 268.928 199.481 267.28V263.296H197.993V262ZM210.234 266.016C210.234 264.512 209.69 263.136 208.314 263.136C206.682 263.136 206.138 264.304 206.138 266.528V270H204.73V258.8H206.138V263.696C206.49 262.512 207.194 261.84 208.57 261.84C210.794 261.84 211.626 263.664 211.626 266.016V270H210.234V266.016ZM218.736 267.616L220.064 267.808C219.632 269.264 218.56 270.192 216.768 270.16C214.8 270.16 213.408 268.752 213.408 266.032C213.408 263.232 214.8 261.84 216.768 261.84C218.496 261.84 220.208 262.848 220.16 266.256H214.736C214.784 267.52 215.264 268.912 216.768 268.912C218 268.912 218.48 268.304 218.736 267.616ZM216.768 263.072C215.52 263.072 214.976 264.048 214.8 265.136H218.752C218.544 263.584 217.728 263.072 216.768 263.072ZM222.09 270V262H222.89C223.146 262 223.45 263.248 223.498 263.872C223.946 262.576 224.81 261.84 226.25 261.84V263.248C224.618 263.248 223.578 264.304 223.498 266.528V270H222.09ZM238.099 270C238.099 272.128 236.819 273.28 234.659 273.28C232.691 273.28 231.667 272.08 231.507 270.72L232.899 270.672C233.043 271.44 233.507 272.192 234.803 272.192C236.083 272.192 236.691 271.424 236.691 270V268.336C236.339 269.504 235.635 270.176 234.275 270.176C232.051 270.176 231.203 268.352 231.203 266.016V266C231.203 263.648 232.051 261.84 234.275 261.84C235.651 261.84 236.355 262.528 236.707 263.744C236.771 263.088 237.059 262 237.283 262H238.099V270ZM234.531 263.136C233.139 263.136 232.611 264.512 232.611 266C232.611 267.504 233.139 268.864 234.531 268.864C236.019 268.864 236.595 267.888 236.691 266C236.595 264.128 236.019 263.136 234.531 263.136ZM240.34 270V262H241.14C241.396 262 241.7 263.248 241.748 263.872C242.196 262.576 243.06 261.84 244.5 261.84V263.248C242.868 263.248 241.828 264.304 241.748 266.528V270H240.34ZM245.421 266.08C245.421 263.264 246.733 261.84 248.989 261.84C251.245 261.84 252.589 263.264 252.589 266.08C252.589 268.736 251.245 270.16 248.989 270.16C246.733 270.16 245.421 268.736 245.421 266.08ZM248.989 268.848C250.573 268.848 251.181 267.648 251.181 266.08C251.181 264.352 250.573 263.136 248.989 263.136C247.437 263.136 246.829 264.352 246.829 266.08C246.829 267.648 247.437 268.848 248.989 268.848ZM255.539 265.984C255.539 267.472 256.067 268.848 257.459 268.848C259.075 268.848 259.619 267.696 259.619 265.472V262H261.027V270H260.211C259.987 270 259.699 268.88 259.635 268.24C259.299 269.456 258.579 270.16 257.203 270.16C254.963 270.16 254.131 268.336 254.131 266.016V262H255.539V265.984ZM264.732 273.2H263.324V262H264.124C264.364 262 264.636 263.056 264.716 263.712C265.052 262.512 265.772 261.84 267.132 261.84C269.372 261.84 270.204 263.664 270.204 266V266.016C270.204 268.352 269.356 270.176 267.132 270.176C265.788 270.176 265.084 269.52 264.732 268.384V273.2ZM266.876 263.136C265.436 263.136 264.844 264.064 264.732 265.84V266.176C264.844 267.936 265.436 268.864 266.876 268.864C268.268 268.864 268.796 267.488 268.796 266C268.796 264.512 268.268 263.136 266.876 263.136ZM274.891 270.144C273.083 270.144 271.867 269.312 271.387 267.824L272.715 267.44C273.035 268.4 273.867 268.848 274.907 268.848C275.899 268.848 276.459 268.496 276.459 267.824C276.459 266.992 275.419 266.736 274.523 266.512C272.955 266.176 271.675 265.616 271.675 264.128C271.675 262.672 272.747 261.84 274.667 261.84C276.427 261.84 277.451 262.704 277.883 264.16L276.571 264.496C276.251 263.456 275.547 263.136 274.571 263.136C273.659 263.136 273.083 263.504 273.083 264.16C273.083 264.976 274.043 265.184 274.971 265.408C276.507 265.76 277.851 266.224 277.851 267.776C277.851 269.216 276.747 270.144 274.891 270.144ZM279.86 258.8H281.284V263.408L281.044 267.04H280.132L279.86 263.408V258.8ZM279.604 269.216C279.604 268.656 279.924 268.32 280.58 268.32C281.188 268.32 281.524 268.656 281.524 269.216C281.524 269.856 281.188 270.16 280.58 270.16C279.924 270.16 279.604 269.856 279.604 269.216ZM56.7649 279.8H65.4689V281.208H61.8529V291H60.3489V281.208H56.7649V279.8ZM72.3982 287.016C72.3982 285.512 71.8542 284.136 70.4782 284.136C68.8462 284.136 68.3022 285.304 68.3022 287.528V291H66.8942V279.8H68.3022V284.696C68.6542 283.512 69.3582 282.84 70.7342 282.84C72.9582 282.84 73.7902 284.664 73.7902 287.016V291H72.3982V287.016ZM75.7959 280.696C75.7959 280.072 76.0999 279.752 76.7719 279.752C77.3799 279.752 77.7159 280.072 77.7159 280.696C77.7159 281.256 77.3799 281.608 76.7719 281.608C76.0999 281.608 75.7959 281.256 75.7959 280.696ZM76.0679 283H77.4599V291H76.0679V283ZM82.6641 291.144C80.8561 291.144 79.6401 290.312 79.1601 288.824L80.4881 288.44C80.8081 289.4 81.6401 289.848 82.6801 289.848C83.6721 289.848 84.2321 289.496 84.2321 288.824C84.2321 287.992 83.1921 287.736 82.2961 287.512C80.7281 287.176 79.4481 286.616 79.4481 285.128C79.4481 283.672 80.5201 282.84 82.4401 282.84C84.2001 282.84 85.2241 283.704 85.6561 285.16L84.3441 285.496C84.0241 284.456 83.3201 284.136 82.3441 284.136C81.4321 284.136 80.8561 284.504 80.8561 285.16C80.8561 285.976 81.8161 286.184 82.7441 286.408C84.2801 286.76 85.6241 287.224 85.6241 288.776C85.6241 290.216 84.5201 291.144 82.6641 291.144ZM92.6894 291L90.5774 283H92.0494L93.6494 289.544L95.4094 283H96.5294L98.2734 289.528L99.8734 283H101.361L99.2494 291H97.4414L95.9694 285.176L94.4974 291H92.6894ZM102.32 287.08C102.32 284.264 103.632 282.84 105.888 282.84C108.144 282.84 109.488 284.264 109.488 287.08C109.488 289.736 108.144 291.16 105.888 291.16C103.632 291.16 102.32 289.736 102.32 287.08ZM105.888 289.848C107.472 289.848 108.08 288.648 108.08 287.08C108.08 285.352 107.472 284.136 105.888 284.136C104.336 284.136 103.728 285.352 103.728 287.08C103.728 288.648 104.336 289.848 105.888 289.848ZM112.437 286.984C112.437 288.472 112.965 289.848 114.357 289.848C115.973 289.848 116.517 288.696 116.517 286.472V283H117.925V291H117.109C116.885 291 116.597 289.88 116.533 289.24C116.197 290.456 115.477 291.16 114.101 291.16C111.861 291.16 111.029 289.336 111.029 287.016V283H112.437V286.984ZM120.222 279.8H121.63V291H120.222V279.8ZM126.533 282.824C127.877 282.824 128.581 283.48 128.949 284.616V279.8H130.341V291H129.541C129.317 291 129.045 289.944 128.965 289.288C128.613 290.488 127.909 291.16 126.533 291.16C124.309 291.16 123.477 289.336 123.477 287V286.984C123.477 284.648 124.309 282.824 126.533 282.824ZM126.789 284.136C125.413 284.136 124.869 285.512 124.869 287C124.885 288.488 125.413 289.848 126.789 289.848C128.245 289.848 128.837 288.936 128.949 287.16V286.824C128.837 285.064 128.245 284.136 126.789 284.136ZM137.763 285.56L136.467 285.16C136.835 283.848 137.971 282.84 139.811 282.84C141.891 282.84 142.995 284.376 142.979 286.168V291H142.179C141.907 291 141.619 289.72 141.571 289.112C141.203 290.408 140.419 291.16 138.995 291.16C137.235 291.16 136.067 290.088 136.067 288.6C136.067 286.312 139.395 286.248 141.571 286.248V286.12C141.571 284.968 140.963 284.136 139.811 284.136C138.691 284.136 138.051 284.616 137.763 285.56ZM137.475 288.552C137.475 289.272 138.067 289.896 139.187 289.896C140.675 289.896 141.395 288.968 141.539 287.192C139.747 287.208 137.475 287.272 137.475 288.552ZM145.285 279.8H146.693V291H145.285V279.8ZM149.004 279.8H150.412V291H149.004V279.8ZM152.21 287.08C152.21 284.264 153.522 282.84 155.778 282.84C158.034 282.84 159.378 284.264 159.378 287.08C159.378 289.736 158.034 291.16 155.778 291.16C153.522 291.16 152.21 289.736 152.21 287.08ZM155.778 289.848C157.362 289.848 157.97 288.648 157.97 287.08C157.97 285.352 157.362 284.136 155.778 284.136C154.226 284.136 153.618 285.352 153.618 287.08C153.618 288.648 154.226 289.848 155.778 289.848ZM162.018 291L159.906 283H161.378L162.978 289.544L164.738 283H165.858L167.602 289.528L169.202 283H170.69L168.578 291H166.77L165.298 285.176L163.826 291H162.018ZM175.663 294.2V292.888H176.511C177.455 292.888 177.695 292.616 177.887 292.088L178.367 290.792L175.343 283H176.767L179.023 288.984L181.199 283H182.623L179.119 292.616C178.735 293.688 178.079 294.2 177.087 294.2H175.663ZM183.492 287.08C183.492 284.264 184.804 282.84 187.06 282.84C189.316 282.84 190.66 284.264 190.66 287.08C190.66 289.736 189.316 291.16 187.06 291.16C184.804 291.16 183.492 289.736 183.492 287.08ZM187.06 289.848C188.644 289.848 189.252 288.648 189.252 287.08C189.252 285.352 188.644 284.136 187.06 284.136C185.508 284.136 184.9 285.352 184.9 287.08C184.9 288.648 185.508 289.848 187.06 289.848ZM193.609 286.984C193.609 288.472 194.137 289.848 195.529 289.848C197.145 289.848 197.689 288.696 197.689 286.472V283H199.097V291H198.281C198.057 291 197.769 289.88 197.705 289.24C197.369 290.456 196.649 291.16 195.273 291.16C193.033 291.16 192.201 289.336 192.201 287.016V283H193.609V286.984ZM204.61 283H206.098V282.984C206.098 282.456 206.418 280.984 206.69 280.984H207.506V283H209.666V284.296H207.506V288.376C207.506 289.112 207.49 289.688 208.53 289.688H209.666V291H207.938C206.498 291 206.098 289.928 206.098 288.28V284.296H204.61V283ZM210.835 287.08C210.835 284.264 212.147 282.84 214.403 282.84C216.659 282.84 218.003 284.264 218.003 287.08C218.003 289.736 216.659 291.16 214.403 291.16C212.147 291.16 210.835 289.736 210.835 287.08ZM214.403 289.848C215.987 289.848 216.595 288.648 216.595 287.08C216.595 285.352 215.987 284.136 214.403 284.136C212.851 284.136 212.243 285.352 212.243 287.08C212.243 288.648 212.851 289.848 214.403 289.848ZM225.064 291L222.952 283H224.424L226.024 289.544L227.784 283H228.904L230.648 289.528L232.248 283H233.736L231.624 291H229.816L228.344 285.176L226.872 291H225.064ZM234.695 287.08C234.695 284.264 236.007 282.84 238.263 282.84C240.519 282.84 241.863 284.264 241.863 287.08C241.863 289.736 240.519 291.16 238.263 291.16C236.007 291.16 234.695 289.736 234.695 287.08ZM238.263 289.848C239.847 289.848 240.455 288.648 240.455 287.08C240.455 285.352 239.847 284.136 238.263 284.136C236.711 284.136 236.103 285.352 236.103 287.08C236.103 288.648 236.711 289.848 238.263 289.848ZM243.644 291V283H244.444C244.7 283 245.004 284.248 245.052 284.872C245.5 283.576 246.364 282.84 247.804 282.84V284.248C246.172 284.248 245.132 285.304 245.052 287.528V291H243.644ZM249.238 279.8H250.646V286.392L253.846 283H255.59L252.39 286.392L256.054 291H254.326L251.302 287.24L250.646 287.896V291H249.238V279.8ZM262.611 291L260.499 283H261.971L263.571 289.544L265.331 283H266.451L268.195 289.528L269.795 283H271.283L269.171 291H267.363L265.891 285.176L264.419 291H262.611ZM272.562 280.696C272.562 280.072 272.866 279.752 273.538 279.752C274.146 279.752 274.482 280.072 274.482 280.696C274.482 281.256 274.146 281.608 273.538 281.608C272.866 281.608 272.562 281.256 272.562 280.696ZM272.834 283H274.226V291H272.834V283ZM275.782 283H277.27V282.984C277.27 282.456 277.59 280.984 277.862 280.984H278.678V283H280.838V284.296H278.678V288.376C278.678 289.112 278.662 289.688 279.702 289.688H280.838V291H279.11C277.67 291 277.27 289.928 277.27 288.28V284.296H275.782V283ZM288.023 287.016C288.023 285.512 287.479 284.136 286.103 284.136C284.471 284.136 283.927 285.304 283.927 287.528V291H282.519V279.8H283.927V284.696C284.279 283.512 284.983 282.84 286.359 282.84C288.583 282.84 289.415 284.664 289.415 287.016V291H288.023V287.016ZM291.421 280.696C291.421 280.072 291.725 279.752 292.397 279.752C293.005 279.752 293.341 280.072 293.341 280.696C293.341 281.256 293.005 281.608 292.397 281.608C291.725 281.608 291.421 281.256 291.421 280.696ZM291.693 283H293.085V291H291.693V283ZM295.441 291V283H296.257C296.481 283 296.769 284.12 296.833 284.76C297.169 283.544 297.889 282.84 299.281 282.84C301.505 282.84 302.337 284.664 302.337 287.016V291H300.945V287.016C300.945 285.512 300.401 284.136 299.025 284.136C297.393 284.136 296.849 285.304 296.849 287.528V291H295.441ZM309.638 285.56L308.342 285.16C308.71 283.848 309.846 282.84 311.686 282.84C313.766 282.84 314.87 284.376 314.854 286.168V291H314.054C313.782 291 313.494 289.72 313.446 289.112C313.078 290.408 312.294 291.16 310.87 291.16C309.11 291.16 307.942 290.088 307.942 288.6C307.942 286.312 311.27 286.248 313.446 286.248V286.12C313.446 284.968 312.838 284.136 311.686 284.136C310.566 284.136 309.926 284.616 309.638 285.56ZM309.35 288.552C309.35 289.272 309.942 289.896 311.062 289.896C312.55 289.896 313.27 288.968 313.414 287.192C311.622 287.208 309.35 287.272 309.35 288.552ZM327.575 291C327.575 293.128 326.295 294.28 324.135 294.28C322.167 294.28 321.143 293.08 320.983 291.72L322.375 291.672C322.519 292.44 322.983 293.192 324.279 293.192C325.559 293.192 326.167 292.424 326.167 291V289.336C325.815 290.504 325.111 291.176 323.751 291.176C321.527 291.176 320.679 289.352 320.679 287.016V287C320.679 284.648 321.527 282.84 323.751 282.84C325.127 282.84 325.831 283.528 326.183 284.744C326.247 284.088 326.535 283 326.759 283H327.575V291ZM324.007 284.136C322.615 284.136 322.087 285.512 322.087 287C322.087 288.504 322.615 289.864 324.007 289.864C325.495 289.864 326.071 288.888 326.167 287C326.071 285.128 325.495 284.136 324.007 284.136ZM329.816 291V283H330.616C330.872 283 331.176 284.248 331.224 284.872C331.672 283.576 332.536 282.84 333.976 282.84V284.248C332.344 284.248 331.304 285.304 331.224 287.528V291H329.816ZM334.898 287.08C334.898 284.264 336.21 282.84 338.466 282.84C340.722 282.84 342.066 284.264 342.066 287.08C342.066 289.736 340.722 291.16 338.466 291.16C336.21 291.16 334.898 289.736 334.898 287.08ZM338.466 289.848C340.05 289.848 340.658 288.648 340.658 287.08C340.658 285.352 340.05 284.136 338.466 284.136C336.914 284.136 336.306 285.352 336.306 287.08C336.306 288.648 336.914 289.848 338.466 289.848ZM345.015 286.984C345.015 288.472 345.543 289.848 346.935 289.848C348.551 289.848 349.095 288.696 349.095 286.472V283H350.503V291H349.687C349.463 291 349.175 289.88 349.111 289.24C348.775 290.456 348.055 291.16 346.679 291.16C344.439 291.16 343.607 289.336 343.607 287.016V283H345.015V286.984ZM354.208 294.2H352.8V283H353.6C353.84 283 354.112 284.056 354.192 284.712C354.528 283.512 355.248 282.84 356.608 282.84C358.848 282.84 359.68 284.664 359.68 287V287.016C359.68 289.352 358.832 291.176 356.608 291.176C355.264 291.176 354.56 290.52 354.208 289.384V294.2ZM356.352 284.136C354.912 284.136 354.32 285.064 354.208 286.84V287.176C354.32 288.936 354.912 289.864 356.352 289.864C357.744 289.864 358.272 288.488 358.272 287C358.272 285.512 357.744 284.136 356.352 284.136ZM361.743 279.8H363.167V284.408L362.927 288.04H362.015L361.743 284.408V279.8ZM361.487 290.216C361.487 289.656 361.807 289.32 362.463 289.32C363.071 289.32 363.407 289.656 363.407 290.216C363.407 290.856 363.071 291.16 362.463 291.16C361.807 291.16 361.487 290.856 361.487 290.216Z" fill="black"/>
<defs>
<filter id="filter0_d_1_111" x="0" y="0" width="439" height="379" filterUnits="userSpaceOnUse" color-interpolation-filters="sRGB">
<feFlood flood-opacity="0" result="BackgroundImageFix"/>
<feColorMatrix in="SourceAlpha" type="matrix" values="0 0 0 0 0 0 0 0 0 0 0 0 0 0 0 0 0 0 127 0" result="hardAlpha"/>
<feOffset dy="4"/>
<feGaussianBlur stdDeviation="2"/>
<feComposite in2="hardAlpha" operator="out"/>
<feColorMatrix type="matrix" values="0 0 0 0 0 0 0 0 0 0 0 0 0 0 0 0 0 0 0.25 0"/>
<feBlend mode="normal" in2="BackgroundImageFix" result="effect1_dropShadow_1_111"/>
<feBlend mode="normal" in="SourceGraphic" in2="effect1_dropShadow_1_111" result="shape"/>
</filter>
</defs>
</svg>
