<svg width="653" height="427" viewBox="0 0 653 427" fill="none" xmlns="http://www.w3.org/2000/svg">
<g clip-path="url(#clip0_1_19)">
<path opacity="0.18" d="M183.351 16.6358C207.456 21.3013 229.876 31.5698 254.875 31.5049C279.075 31.4472 300.706 21.7484 322.946 15.0638C355.51 5.27125 391.216 1.68738 426.597 0.389394C455.765 -0.685047 486.293 -0.0649 512.244 9.39595C538.195 18.8568 556.8 36.5959 567.334 55.8204C577.869 75.045 580.952 95.856 582.141 116.429C583.093 133.836 582.855 151.446 588.375 168.435C595.988 191.892 614.23 212.84 628.848 234.61C640.543 252.018 650.136 270.471 652.486 289.666C654.837 308.862 649.403 329.01 633.377 344.657C609.396 368.064 566.211 377.77 525.281 380.273C502.338 381.672 478.652 381.354 457.183 387.166C442.708 391.075 429.995 397.586 416.158 402.497C388.561 412.297 357.157 415.542 326.276 416.674C247.747 419.544 169.319 409.625 96.2766 387.585C85.4089 384.282 74.5223 380.626 65.7577 375.037C56.0035 368.822 49.4087 360.529 44.2604 352.02C34.9984 336.596 29.9977 319.9 29.5657 302.958C29.1336 286.016 33.2794 269.186 41.7481 253.503C54.4428 230.197 76.9584 207.764 73.2851 182.951C67.7752 145.987 19.0421 113.285 39.5308 74.1652C61.2089 32.8534 120.001 4.38429 183.351 16.6358Z" fill="#EA4335"/>
<path opacity="0.19" d="M157.562 410.66C153.222 411.59 148.293 412.924 146.78 416.14C145.4 419.089 147.731 422.457 151.205 424.173C154.678 425.889 158.922 426.337 163.043 426.582C175.414 427.346 187.785 426.928 200.157 426.517L276.677 423.943C291.647 423.445 307.52 422.717 319.805 416.212C321.709 415.21 323.612 413.725 323.203 412.016C322.87 410.732 321.299 409.852 319.786 409.246C306.463 403.622 290.162 404.682 274.907 403.838C254.78 402.72 234.882 397.918 214.593 398.553C195.322 399.122 176.147 406.658 157.562 410.66Z" fill="url(#paint0_linear_1_19)"/>
<path d="M0 83.5972L3.90169 82.2921H182.808V178.992C182.808 178.992 182.808 194.459 168.001 200.726C161.949 203.3 0 83.5972 0 83.5972Z" fill="#EA4335"/>
<path d="M180.115 83.5972V184.039C180.113 189.288 177.359 194.321 172.461 198.031C167.562 201.742 160.919 203.826 153.993 203.826H0V83.5972H180.115Z" fill="#EA4335"/>
<path d="M180.115 83.5972V184.039C180.113 189.288 177.359 194.321 172.461 198.031C167.562 201.742 160.919 203.826 153.993 203.826H0V83.5972H180.115Z" fill="url(#paint1_linear_1_19)"/>
<path d="M180.115 184.039C180.113 189.288 177.359 194.321 172.461 198.031C167.562 201.742 160.919 203.826 153.993 203.826H149.872C158.999 201.598 157.819 189.332 157.819 189.332C174.891 191.56 180.115 184.039 180.115 184.039ZM238.336 112.586H418.442V232.815H238.336V112.586Z" fill="#EA4335"/>
<path d="M238.336 112.586H418.442V232.815H238.336V112.586Z" fill="url(#paint2_linear_1_19)"/>
<path d="M442.366 63.9761H622.472V184.205H442.366V63.9761Z" fill="#EA4335"/>
<path d="M442.366 63.9761H622.472V184.205H442.366V63.9761Z" fill="url(#paint3_linear_1_19)"/>
<path opacity="0.34" d="M114.643 65.7933L89.1298 110.127C89.1298 109.672 89.1298 109.218 89.0727 108.771C87.6453 109.175 86.6746 107.956 86.2178 106.846C85.4375 105.086 84.4573 102.937 82.2114 103.06C81.0409 103.125 79.9085 103.839 78.8712 104.502C77.9686 105.252 76.8337 105.819 75.5691 106.153C75.2764 106.204 74.9719 106.199 74.6824 106.139C74.3928 106.079 74.1272 105.966 73.9089 105.81C73.6907 105.654 73.5266 105.46 73.4311 105.244C73.3355 105.028 73.3116 104.798 73.3613 104.574L70.9727 105.764C68.6792 106.896 69.7736 104.271 69.2502 103.399C67.8463 103.785 66.5679 104.395 65.5008 105.187L92.4034 58.438L114.643 65.7933ZM298.384 122.061C298.926 121.88 299.459 121.679 299.992 121.462C298.917 120.64 299.992 119.479 301.125 118.679C302.923 117.424 305.103 115.867 304.037 114.352C303.475 113.566 302.133 113.069 300.887 112.643C299.617 112.33 298.472 111.779 297.556 111.042C297.376 110.864 297.256 110.654 297.207 110.432C297.158 110.211 297.181 109.983 297.275 109.769C297.369 109.556 297.53 109.363 297.745 109.208C297.96 109.053 298.222 108.94 298.508 108.879C297.699 108.497 296.899 108.107 296.1 107.718C293.788 106.6 297.404 106.276 298.232 105.555C297.198 104.737 295.941 104.1 294.549 103.687L356.938 103.146C356.377 103.735 356.047 104.433 355.986 105.158C355.986 105.944 357.595 106.492 358.07 107.091C358.129 107.167 358.18 107.247 358.223 107.329L358.48 108.244C358.431 108.866 358.154 109.466 357.68 109.975C356.936 110.689 356.345 111.487 355.929 112.34C355.714 113.385 355.987 114.453 356.7 115.362C357.652 116.804 359.117 118.145 361.154 118.571C361.217 118.577 361.281 118.577 361.344 118.571L362.143 121.455L298.384 122.061ZM500.092 61.445C500.691 61.445 501.291 61.4955 501.89 61.4955C501.462 60.3922 503.128 59.7504 504.631 59.462C507.001 59.0077 509.903 58.4236 509.913 56.7218C509.913 55.8276 509.056 54.9191 508.209 54.0826C507.299 53.3457 506.644 52.4486 506.306 51.4722C506.258 51.2477 506.284 51.0177 506.382 50.8027C506.48 50.5878 506.647 50.3946 506.867 50.2403C507.088 50.0861 507.355 49.9756 507.646 49.9188C507.937 49.8619 508.241 49.8605 508.533 49.9146L507.143 48.0181C505.821 46.2009 509.199 47.2249 510.388 46.8932C509.984 45.8036 509.28 44.7912 508.323 43.9223L563.461 65.9735C562.601 66.2958 561.878 66.7958 561.377 67.4157C560.882 68.1008 561.967 69.168 561.995 69.8675C562.01 69.9561 562.01 70.0457 561.995 70.1343L561.672 71.0212C561.229 71.5488 560.608 71.9771 559.873 72.2615C558.767 72.6138 557.745 73.101 556.847 73.7037C555.999 74.5437 555.565 75.5818 555.619 76.6386C555.553 78.2395 555.991 79.9629 557.523 81.0734C557.567 81.1106 557.618 81.1422 557.675 81.1671L556.543 84.0011L500.092 61.445Z" fill="#EA4335"/>
<path opacity="0.34" d="M114.643 65.7933L89.1298 110.127C89.1298 109.672 89.1298 109.218 89.0727 108.771C87.6453 109.175 86.6746 107.956 86.2178 106.846C85.4375 105.086 84.4573 102.937 82.2114 103.06C81.0409 103.125 79.9085 103.839 78.8712 104.502C77.9686 105.252 76.8337 105.819 75.5691 106.153C75.2764 106.204 74.9719 106.199 74.6824 106.139C74.3928 106.079 74.1272 105.966 73.9089 105.81C73.6907 105.654 73.5266 105.46 73.4311 105.244C73.3355 105.028 73.3116 104.798 73.3613 104.574L70.9727 105.764C68.6792 106.896 69.7736 104.271 69.2502 103.399C67.8463 103.785 66.5679 104.395 65.5008 105.187L92.4034 58.438L114.643 65.7933ZM298.384 122.061C298.926 121.88 299.459 121.679 299.992 121.462C298.917 120.64 299.992 119.479 301.125 118.679C302.923 117.424 305.103 115.867 304.037 114.352C303.475 113.566 302.133 113.069 300.887 112.643C299.617 112.33 298.472 111.779 297.556 111.042C297.376 110.864 297.256 110.654 297.207 110.432C297.158 110.211 297.181 109.983 297.275 109.769C297.369 109.556 297.53 109.363 297.745 109.208C297.96 109.053 298.222 108.94 298.508 108.879C297.699 108.497 296.899 108.107 296.1 107.718C293.788 106.6 297.404 106.276 298.232 105.555C297.198 104.737 295.941 104.1 294.549 103.687L356.938 103.146C356.377 103.735 356.047 104.433 355.986 105.158C355.986 105.944 357.595 106.492 358.07 107.091C358.129 107.167 358.18 107.247 358.223 107.329L358.48 108.244C358.431 108.866 358.154 109.466 357.68 109.975C356.936 110.689 356.345 111.487 355.929 112.34C355.714 113.385 355.987 114.453 356.7 115.362C357.652 116.804 359.117 118.145 361.154 118.571C361.217 118.577 361.281 118.577 361.344 118.571L362.143 121.455L298.384 122.061ZM500.092 61.445C500.691 61.445 501.291 61.4955 501.89 61.4955C501.462 60.3922 503.128 59.7504 504.631 59.462C507.001 59.0077 509.903 58.4236 509.913 56.7218C509.913 55.8276 509.056 54.9191 508.209 54.0826C507.299 53.3457 506.644 52.4486 506.306 51.4722C506.258 51.2477 506.284 51.0177 506.382 50.8027C506.48 50.5878 506.647 50.3946 506.867 50.2403C507.088 50.0861 507.355 49.9756 507.646 49.9188C507.937 49.8619 508.241 49.8605 508.533 49.9146L507.143 48.0181C505.821 46.2009 509.199 47.2249 510.388 46.8932C509.984 45.8036 509.28 44.7912 508.323 43.9223L563.461 65.9735C562.601 66.2958 561.878 66.7958 561.377 67.4157C560.882 68.1008 561.967 69.168 561.995 69.8675C562.01 69.9561 562.01 70.0457 561.995 70.1343L561.672 71.0212C561.229 71.5488 560.608 71.9771 559.873 72.2615C558.767 72.6138 557.745 73.101 556.847 73.7037C555.999 74.5437 555.565 75.5818 555.619 76.6386C555.553 78.2395 555.991 79.9629 557.523 81.0734C557.567 81.1106 557.618 81.1422 557.675 81.1671L556.543 84.0011L500.092 61.445Z" fill="white"/>
<path d="M471.058 111.36H593.78V113.819H471.058V111.36Z" fill="url(#paint4_linear_1_19)"/>
<path d="M471.058 129.813H593.78V132.272H471.058V129.813Z" fill="url(#paint5_linear_1_19)"/>
<path d="M471.058 148.273H593.78V150.732H471.058V148.273Z" fill="url(#paint6_linear_1_19)"/>
<path d="M44.9931 124.022H135.113V126.481H44.9931V124.022Z" fill="url(#paint7_linear_1_19)"/>
<path d="M44.9931 142.482H135.113V144.941H44.9931V142.482Z" fill="url(#paint8_linear_1_19)"/>
<path d="M44.9931 160.943H135.113V163.402H44.9931V160.943Z" fill="url(#paint9_linear_1_19)"/>
<path d="M281.883 143.715H372.002V146.174H281.883V143.715Z" fill="url(#paint10_linear_1_19)"/>
<path d="M281.883 162.176H372.002V164.635H281.883V162.176Z" fill="url(#paint11_linear_1_19)"/>
<path d="M281.883 180.629H372.002V183.088H281.883V180.629Z" fill="url(#paint12_linear_1_19)"/>
<path d="M180.115 213.475C180.115 213.475 212.528 170.677 223.89 157.135L231.18 150.443L238.327 159.652L238.488 167.065L208.588 209.761C208.588 209.761 187.214 224.544 180.115 213.475Z" fill="#EA4335"/>
<path d="M238.812 151.547L203.173 206.415L228.668 181.862L238.517 167.065L238.812 151.547Z" fill="url(#paint13_linear_1_19)"/>
<path d="M280.665 148.266C282.023 149.681 282.673 151.416 282.501 153.162C286.841 150.465 286.907 144.797 291.846 142.771C291.847 144.943 291.342 147.099 290.352 149.138C291.922 146.686 293.854 143.982 297.309 143.203C296.848 145.995 295.499 148.66 293.378 150.97L297.88 147.523C298.279 147.213 298.831 146.874 299.374 147.083C299.916 147.292 299.773 148.006 299.478 148.482L294.511 156.529C296.082 155.571 297.79 154.749 299.602 154.078L294.149 160.885C293.526 161.748 292.765 162.549 291.884 163.272C289.857 164.815 286.631 165.716 285.937 167.829C286.089 167.375 278.095 165.442 277.534 164.786C276.582 163.654 278.333 161.274 278.533 159.919C279.104 156.111 277.734 151.712 280.665 148.266Z" fill="url(#paint14_linear_1_19)"/>
<path d="M233.026 286.53L244.008 347.145C244.465 349.698 244.113 352.296 242.98 354.724L230.79 397.399L211.89 395.856L220.541 352.251C220.73 351.353 220.655 350.434 220.322 349.561L205.419 310.621L202.612 354.724L178.183 392.221L161.054 387.029L182.761 353.354L179.268 311.703C176.176 297.209 181.828 286.508 181.828 286.508L233.026 286.53Z" fill="#3D5644"/>
<path d="M233.026 286.529H181.79V280.076H233.026V286.529Z" fill="#EA4335"/>
<path d="M233.026 286.53H181.79V280.076H233.026V286.53Z" fill="url(#paint15_linear_1_19)"/>
<path d="M289.334 169.17L241.134 229.498L238.622 274.776C238.622 279.102 238.393 282.708 234.149 283.696C233.323 283.874 232.467 283.959 231.608 283.948H188.927C187.326 283.949 185.74 283.711 184.259 283.247C182.779 282.783 181.434 282.103 180.301 281.245C179.168 280.387 178.27 279.368 177.656 278.247C177.043 277.126 176.727 275.924 176.727 274.711V233.118C176.727 233.118 173.587 209.53 188.356 209.53H217.933C221.462 209.532 224.946 208.928 228.122 207.762C231.298 206.597 234.084 204.901 236.271 202.802L275.726 163.409L289.334 169.17Z" fill="#EA4335"/>
<path d="M215.564 209.754H200.775V181.263H215.564V209.754Z" fill="url(#paint16_linear_1_19)"/>
<path d="M200.785 178.148V209.761H208.588V207.836C208.588 206.704 209.182 205.618 210.238 204.817C211.295 204.017 212.728 203.567 214.222 203.567H214.669C218.384 203.567 221.947 202.449 224.574 200.458C227.201 198.467 228.677 195.767 228.677 192.952V178.148H200.785Z" fill="url(#paint17_linear_1_19)"/>
<path d="M234.463 150.501C234.758 150.032 234.977 149.542 235.3 149.059C235.97 148.199 236.803 147.419 237.775 146.744L240.858 144.364C241.07 144.163 241.365 144.021 241.695 143.961C242.333 143.903 242.78 144.494 242.647 144.97C242.449 145.43 242.106 145.846 241.648 146.182C240.076 147.734 239.089 149.581 238.793 151.525C238.513 153.457 238.396 155.401 238.441 157.344C238.501 157.982 238.33 158.621 237.946 159.19C236.978 157.581 235.905 156.009 234.729 154.481C234.32 153.962 233.074 152.946 233.036 152.361C232.997 151.777 234.196 151.013 234.463 150.501Z" fill="url(#paint18_linear_1_19)"/>
<path d="M230.019 173.172C229.755 172.076 229.188 171.034 228.357 170.115C227.526 169.195 226.448 168.419 225.194 167.836V169.423C219.665 167.396 213.051 168.99 206.989 168.233C207.689 168.789 208.256 169.433 208.664 170.137C204.7 170.137 200.791 170.835 197.245 172.177C197.568 172.531 197.892 172.898 198.196 173.23C198.313 173.338 198.389 173.467 198.415 173.605C198.415 173.886 198.063 174.074 197.768 174.247C196.055 175.235 195.865 177.131 195.96 178.761C196.274 183.693 197.958 188.503 199.633 193.277C200.271 195.087 200.899 196.882 201.537 198.707L202.869 197.315L204.134 197.985C205.866 195.952 213.422 195.527 214.108 193.161C212.204 192.83 209.93 190.875 210.139 189.397C210.349 187.919 210.977 187.587 212.832 188.063C214.127 188.388 212.004 186.383 211.776 185.568C211.548 184.753 211.062 183.924 211.595 183.225C212.328 182.251 214.241 182.503 215.611 182.907C216.208 181.616 217.341 180.506 218.84 179.744C220.34 178.982 222.125 178.609 223.928 178.682C225.832 178.79 227.668 179.662 228.924 178.292C230.181 176.922 230.39 174.759 230.019 173.172Z" fill="#3D5644"/>
<path d="M289.334 169.17L241.134 229.498L238.622 274.776C238.622 279.102 238.726 283.299 232.741 283.948H224.68C224.68 283.948 231.456 232.173 230.209 227.154C228.963 222.135 285.975 167.822 285.975 167.822L289.334 169.17Z" fill="url(#paint19_linear_1_19)"/>
<path d="M215.088 396.115L211.786 406.932H254.609C254.609 406.932 255.056 401.581 246.225 399.721C240.897 398.615 235.295 398.498 229.895 399.382L228.763 397.219L215.088 396.115ZM164.509 388.104L156.972 396.757L165.803 400.658L168.591 399.548L174.919 404.451L197.14 405.006C197.14 405.006 195.674 396.584 185.368 396.562C175.062 396.541 175.976 391.587 175.976 391.587L164.509 388.104Z" fill="#3D5644"/>
</g>
<defs>
<linearGradient id="paint0_linear_1_19" x1="146.38" y1="412.744" x2="323.231" y2="412.744" gradientUnits="userSpaceOnUse">
<stop stop-color="#18662D"/>
<stop offset="1" stop-color="#4285F4"/>
</linearGradient>
<linearGradient id="paint1_linear_1_19" x1="88.0545" y1="124.419" x2="106.939" y2="440.832" gradientUnits="userSpaceOnUse">
<stop stop-opacity="0"/>
<stop offset="0.98"/>
</linearGradient>
<linearGradient id="paint2_linear_1_19" x1="332.31" y1="164.022" x2="269.784" y2="405.141" gradientUnits="userSpaceOnUse">
<stop stop-opacity="0"/>
<stop offset="0.98"/>
</linearGradient>
<linearGradient id="paint3_linear_1_19" x1="515.289" y1="91.1832" x2="607.615" y2="400.087" gradientUnits="userSpaceOnUse">
<stop stop-opacity="0"/>
<stop offset="0.98"/>
</linearGradient>
<linearGradient id="paint4_linear_1_19" x1="527.623" y1="52.3375" x2="541.84" y2="363.238" gradientUnits="userSpaceOnUse">
<stop stop-color="#68A0FD"/>
<stop offset="0.09" stop-color="#6497EC"/>
<stop offset="0.52" stop-color="#34A853"/>
<stop offset="0.83" stop-color="#44694E"/>
<stop offset="0.99" stop-color="#3D5644"/>
</linearGradient>
<linearGradient id="paint5_linear_1_19" x1="526.157" y1="52.4027" x2="540.375" y2="363.302" gradientUnits="userSpaceOnUse">
<stop stop-color="#68A0FD"/>
<stop offset="0.09" stop-color="#6497EC"/>
<stop offset="0.52" stop-color="#34A853"/>
<stop offset="0.83" stop-color="#44694E"/>
<stop offset="0.99" stop-color="#3D5644"/>
</linearGradient>
<linearGradient id="paint6_linear_1_19" x1="524.692" y1="52.4744" x2="538.909" y2="363.368" gradientUnits="userSpaceOnUse">
<stop stop-color="#68A0FD"/>
<stop offset="0.09" stop-color="#6497EC"/>
<stop offset="0.52" stop-color="#34A853"/>
<stop offset="0.83" stop-color="#44694E"/>
<stop offset="0.99" stop-color="#3D5644"/>
</linearGradient>
<linearGradient id="paint7_linear_1_19" x1="85.8562" y1="72.5357" x2="100.074" y2="383.435" gradientUnits="userSpaceOnUse">
<stop stop-color="#68A0FD"/>
<stop offset="0.09" stop-color="#6497EC"/>
<stop offset="0.52" stop-color="#34A853"/>
<stop offset="0.83" stop-color="#44694E"/>
<stop offset="0.99" stop-color="#3D5644"/>
</linearGradient>
<linearGradient id="paint8_linear_1_19" x1="84.3907" y1="72.6076" x2="98.6086" y2="383.508" gradientUnits="userSpaceOnUse">
<stop stop-color="#68A0FD"/>
<stop offset="0.09" stop-color="#6497EC"/>
<stop offset="0.52" stop-color="#34A853"/>
<stop offset="0.83" stop-color="#44694E"/>
<stop offset="0.99" stop-color="#3D5644"/>
</linearGradient>
<linearGradient id="paint9_linear_1_19" x1="82.9252" y1="72.6725" x2="97.1431" y2="383.573" gradientUnits="userSpaceOnUse">
<stop stop-color="#68A0FD"/>
<stop offset="0.09" stop-color="#6497EC"/>
<stop offset="0.52" stop-color="#34A853"/>
<stop offset="0.83" stop-color="#44694E"/>
<stop offset="0.99" stop-color="#3D5644"/>
</linearGradient>
<linearGradient id="paint10_linear_1_19" x1="320.329" y1="61.8127" x2="334.541" y2="372.713" gradientUnits="userSpaceOnUse">
<stop stop-color="#68A0FD"/>
<stop offset="0.09" stop-color="#6497EC"/>
<stop offset="0.52" stop-color="#34A853"/>
<stop offset="0.83" stop-color="#44694E"/>
<stop offset="0.99" stop-color="#3D5644"/>
</linearGradient>
<linearGradient id="paint11_linear_1_19" x1="318.863" y1="61.8848" x2="333.076" y2="372.785" gradientUnits="userSpaceOnUse">
<stop stop-color="#68A0FD"/>
<stop offset="0.09" stop-color="#6497EC"/>
<stop offset="0.52" stop-color="#34A853"/>
<stop offset="0.83" stop-color="#44694E"/>
<stop offset="0.99" stop-color="#3D5644"/>
</linearGradient>
<linearGradient id="paint12_linear_1_19" x1="317.398" y1="61.9502" x2="331.61" y2="372.849" gradientUnits="userSpaceOnUse">
<stop stop-color="#68A0FD"/>
<stop offset="0.09" stop-color="#6497EC"/>
<stop offset="0.52" stop-color="#34A853"/>
<stop offset="0.83" stop-color="#44694E"/>
<stop offset="0.99" stop-color="#3D5644"/>
</linearGradient>
<linearGradient id="paint13_linear_1_19" x1="305.969" y1="190.926" x2="92.2886" y2="138.616" gradientUnits="userSpaceOnUse">
<stop stop-color="#68A0FD"/>
<stop offset="0.09" stop-color="#6497EC"/>
<stop offset="0.52" stop-color="#34A853"/>
<stop offset="0.83" stop-color="#44694E"/>
<stop offset="0.99" stop-color="#3D5644"/>
</linearGradient>
<linearGradient id="paint14_linear_1_19" x1="277.258" y1="155.296" x2="299.764" y2="155.296" gradientUnits="userSpaceOnUse">
<stop stop-color="#C4D3EC"/>
<stop offset="0.42" stop-color="#D1DCEF"/>
<stop offset="1" stop-color="#FBBC05"/>
</linearGradient>
<linearGradient id="paint15_linear_1_19" x1="207.503" y1="264.738" x2="207.334" y2="323.111" gradientUnits="userSpaceOnUse">
<stop stop-opacity="0"/>
<stop offset="0.98"/>
</linearGradient>
<linearGradient id="paint16_linear_1_19" x1="212.728" y1="195.577" x2="188.458" y2="194.987" gradientUnits="userSpaceOnUse">
<stop stop-color="#C4D3EC"/>
<stop offset="0.42" stop-color="#D1DCEF"/>
<stop offset="1" stop-color="#FBBC05"/>
</linearGradient>
<linearGradient id="paint17_linear_1_19" x1="211.329" y1="192.592" x2="215.637" y2="195.596" gradientUnits="userSpaceOnUse">
<stop stop-color="#C4D3EC"/>
<stop offset="0.42" stop-color="#D1DCEF"/>
<stop offset="1" stop-color="#FBBC05"/>
</linearGradient>
<linearGradient id="paint18_linear_1_19" x1="233.045" y1="151.59" x2="242.676" y2="151.59" gradientUnits="userSpaceOnUse">
<stop stop-color="#C4D3EC"/>
<stop offset="0.42" stop-color="#D1DCEF"/>
<stop offset="1" stop-color="#FBBC05"/>
</linearGradient>
<linearGradient id="paint19_linear_1_19" x1="218.561" y1="199.06" x2="302.328" y2="303.465" gradientUnits="userSpaceOnUse">
<stop stop-opacity="0"/>
<stop offset="0.98"/>
</linearGradient>
<clipPath id="clip0_1_19">
<rect width="653" height="427" fill="white"/>
</clipPath>
</defs>
</svg>
