<svg width="52" height="37" viewBox="0 0 52 37" fill="none" xmlns="http://www.w3.org/2000/svg">
<path fill-rule="evenodd" clip-rule="evenodd" d="M39.6438 20.9902C39.0885 20.8984 38.5535 20.7922 38.066 20.636C36.6604 20.1504 35.7441 19.4194 34.8784 18.7269C33.6586 17.7198 32.7898 16.6465 32.1891 15.5269C31.931 15.0458 31.8433 14.4881 31.2571 14.0615C29.9278 13.1686 26.0299 13.2843 23.9601 13.4411C22.5742 13.555 22.2876 14.2752 21.9729 14.808C21.7109 15.2508 21.5393 15.6985 21.3953 16.1523C21.0524 16.2569 20.6657 16.3419 20.2968 16.4159C16.2783 16.9881 15.572 18.0487 14.0371 19.6871C11.4447 22.0684 4.41008 23.0009 3.34749 25.8192C2.66288 27.6799 4.60974 29.4304 6.61698 30.977C8.48628 32.6667 11.096 33.4776 15.2521 33.0785C19.1502 32.6725 22.8965 31.9933 26.7262 31.4684C28.5809 31.2567 30.4328 30.706 32.384 30.898C36.4041 31.3172 40.5347 31.5142 44.6549 31.4599C50.4395 31.5684 50.4386 28.9908 49.8449 26.9945C49.4291 23.888 46.0542 21.8931 39.6438 20.9902Z" fill="#53D86A"/>
<path fill-rule="evenodd" clip-rule="evenodd" d="M40.0306 25.4854C40.5138 25.6338 40.9205 25.8588 41.2467 26.0956C39.8844 26.0299 38.5242 25.9539 37.167 25.8675C37.3446 25.8148 37.5241 25.7633 37.7075 25.7146C38.3765 25.5396 39.2831 25.256 40.0306 25.4854ZM17.3936 27.3553C17.1439 27.31 17.0473 27.1332 16.95 27.0319C16.6449 26.7142 16.3665 26.3911 16.0769 26.0703C17.1767 25.9248 18.2463 25.7633 19.3857 25.6856C20.6106 25.6023 21.854 25.5821 23.0905 25.6008C25.5948 25.6387 28.0759 25.8289 30.5382 26.0325C32.9974 26.2362 35.4567 26.4317 37.9332 26.5852C40.3595 26.7354 42.7936 26.8455 45.232 26.942C45.7059 26.9608 46.496 27.0399 46.877 26.8669C47.1787 26.7298 47.1884 26.4769 46.811 26.3655C46.5759 26.296 46.2351 26.295 45.9664 26.2789C45.6281 26.2588 45.2886 26.2453 44.9482 26.2348C44.8096 26.2305 44.6707 26.2266 44.5321 26.2227C45.6457 26.0277 46.8086 25.9214 48.0157 25.9511C48.0838 26.1436 48.3915 26.3418 48.5598 26.5006C48.8539 26.7778 49.083 27.0584 49.2334 27.3598C49.5478 27.99 49.5614 28.6439 49.4727 29.2866C49.391 29.8223 49.2158 30.415 48.3104 30.7946C47.625 31.0818 46.6582 31.1883 45.761 31.2217C44.7182 31.2606 43.6594 31.219 42.6254 31.1541C41.1753 31.0631 39.7183 30.9428 38.2966 30.7814C35.5432 30.4689 32.9039 29.9716 30.4689 29.2975C29.2811 28.9687 28.1482 28.599 26.9444 28.2827C25.7177 27.9604 24.4125 27.7104 23.0421 27.5552C21.5082 27.3815 19.905 27.3073 18.3284 27.3501C18.0549 27.3576 17.6597 27.4037 17.3936 27.3553ZM15.6162 27.0327C15.7774 27.2756 15.9007 27.5528 16.2447 27.7569C16.5855 27.959 17.0995 28.0304 17.6321 28.0484C18.2742 28.07 18.9239 28.0561 19.5672 28.0672C20.8872 28.09 22.189 28.1896 23.4509 28.3721C24.6265 28.5424 25.718 28.8076 26.7695 29.1022C27.7418 29.3745 28.6853 29.6669 29.6579 29.9383C29.3992 29.9934 29.1432 30.0529 28.8859 30.1049C28.3461 30.2136 27.8032 30.3187 27.2576 30.421C26.1822 30.6229 25.1019 30.8198 24.0107 31.0027C21.8105 31.3717 19.5739 31.694 17.3103 31.9686C16.2308 32.0996 15.1359 32.2525 14.0144 32.2743C13.0199 32.2935 12.0987 32.1631 11.2967 31.8885C9.63305 31.3192 8.30949 30.4972 7.23955 29.6865C6.6039 29.2048 6.04916 28.6988 5.59036 28.1755C5.35829 27.9108 5.14783 27.6421 4.9584 27.3704C4.86952 27.2427 4.78528 27.1143 4.70548 26.9854C4.67038 26.9287 4.63676 26.8718 4.60344 26.8149C6.30459 26.5739 8.02589 26.3564 9.78762 26.2356C10.7282 26.171 11.6814 26.1384 12.6323 26.1432C13.1043 26.1454 13.576 26.1574 14.0455 26.18C14.2982 26.1921 14.5499 26.2078 14.8006 26.2272C14.9041 26.2352 15.0106 26.247 15.1173 26.2557C15.2804 26.5152 15.4448 26.7743 15.6162 27.0327ZM50.7806 26.0011C50.8723 25.915 50.911 25.8303 50.944 25.7366C50.9688 25.665 51.0354 25.5644 50.9773 25.4716C50.9119 25.3675 50.7343 25.2746 50.6069 25.1859C50.4659 25.0879 50.3251 24.9897 50.1847 24.8917C49.9036 24.6955 49.6231 24.499 49.3432 24.3024C48.1997 23.4998 47.064 22.6949 45.9262 21.8905C44.917 21.1766 43.9245 20.4563 42.8841 19.752C41.9948 19.1496 41.0252 18.5574 39.8078 18.089C38.2685 17.4968 36.4353 17.2178 34.5207 17C34.3116 16.8993 34.0323 16.8443 33.7337 16.8555C33.3118 16.6333 32.9765 16.4781 32.8246 16.1957C32.7517 16.0605 32.7747 15.6803 32.4909 15.6002C32.1538 15.5052 31.9776 15.631 31.8847 15.7728C31.5737 16.2475 31.9307 16.8856 32.7523 17.3611C32.4061 17.9164 31.9471 18.7057 31.1285 19.1506C30.2519 19.6271 29.0397 19.7754 27.7315 19.7851C25.2371 19.8038 22.7455 19.3733 20.8427 18.6274C20.2644 18.4006 19.7273 18.1474 19.2413 17.8782C18.877 17.6761 18.4458 17.3643 18.1607 17.1287C18.1607 17.0368 17.9271 16.9407 20.305 16.8665C22.6826 16.7923 22.8629 15.2807 22.9159 15.075C22.9588 14.9079 23.1416 14.6486 22.888 14.5124C22.7803 14.4545 22.5597 14.4452 22.4232 14.4846C22.166 14.5587 22.0813 14.7483 22.0005 14.8771C21.8873 15.0576 21.5169 16.1774 20.8152 16.3071C20.4866 16.3677 20.1098 16.3689 19.7624 16.3801C19.333 16.394 18.903 16.4043 18.4758 16.4274C18.3181 16.436 18.146 16.4596 17.9904 16.4603C17.8892 16.4607 17.7848 16.438 17.687 16.422C17.3569 16.3677 17.027 16.4083 16.6869 16.4295C13.6799 16.6172 10.5837 17.0454 8.01875 17.816C5.75806 18.4952 4.16536 19.4718 3.11442 20.6137C2.04211 21.7791 1.42746 23.0393 0.912396 24.2799C0.739821 24.6957 0.589155 25.1132 0.459701 25.5323C0.334574 25.9372 0.178067 26.351 0.140605 26.7601C0.125777 26.9219 0.209085 27.0722 0.337268 27.2201C0.48161 27.3865 0.822826 27.4521 1.15006 27.5298C1.86847 27.7004 2.62629 27.8327 3.40707 27.9264C3.88406 28.3293 4.2855 28.7478 4.60807 29.1823C4.48839 29.2924 4.48591 29.4568 4.46288 29.5638C4.40581 29.8303 4.38139 30.0982 4.37628 30.3658C4.36596 30.9023 4.43547 31.4383 4.48993 31.974C4.54516 32.5173 4.72878 34.661 4.75871 34.9228C4.78198 35.126 4.75063 35.4105 4.98136 35.591C5.33593 35.8685 6.211 35.8592 6.61633 35.6342C16.6869 36.6394 35.6168 36.3366 43.2409 35.8309C44.2328 35.765 43.9211 35.838 44.1735 35.7217C44.3626 35.6342 44.5239 35.4847 44.5763 35.3644C44.6462 35.2039 44.5333 35.0586 44.3354 34.9288C44.1272 34.7921 44.0894 34.5711 44.0119 34.4087C43.8291 34.0249 43.7384 32.3392 43.653 32.1524C43.6264 32.0943 43.6007 32.0327 43.5695 31.9711C44.9681 32.0326 46.4252 32.0326 47.7557 31.8155C48.5101 31.6923 49.2137 31.4989 49.7553 31.2227C50.4111 30.8883 50.776 30.4672 50.9636 30.0278C51.2057 29.4611 51.2572 28.8742 51.2097 28.2981C51.1434 27.6173 50.9004 26.927 50.2967 26.3019C50.4952 26.2162 50.6616 26.1129 50.7806 26.0011Z" fill="#595BD4"/>
<path fill-rule="evenodd" clip-rule="evenodd" d="M16.184 3.93546C16.5156 3.77028 16.9396 3.64722 17.4032 3.60788C16.9794 3.70617 16.5652 3.8086 16.184 3.93546ZM15.5345 5.35974C15.4759 5.23386 15.4365 5.10676 15.4241 4.97969C15.4982 5.03199 15.6166 5.06693 15.7495 5.08498C15.6636 5.17423 15.5906 5.26619 15.5345 5.35974ZM37.7198 7.33342C37.3371 6.59383 35.5517 5.17124 35.1296 4.89743C34.6714 4.21945 37.1706 3.67575 35.8113 3.14559C35.1961 2.90638 34.3827 2.82172 33.6199 2.73689C28.3373 2.14788 22.6617 2.44493 17.7622 3.52807C17.017 3.45527 16.2405 3.59756 15.6986 3.84749C13.1526 5.03561 16.6223 7.17933 17.381 8.51878C18.6827 10.0123 16.0013 10.2636 16.2888 11.5273C16.5123 12.18 17.9365 12.3526 19.1384 12.4512C19.3309 12.4722 19.5884 12.4754 19.6504 12.5699C19.8453 13.1217 20.5129 13.6475 21.4092 14.0045C21.3308 14.1122 21.3904 14.2431 21.667 14.3378C24.171 15.2018 27.3284 15.6342 30.4513 15.5564C34.1733 15.4638 36.0982 14.4733 36.5627 14.2183C39.1306 12.6081 38.8237 10.4836 38.2999 8.56473C37.935 7.22797 38.3977 8.64362 37.7198 7.33342Z" fill="#53D86A"/>
<path fill-rule="evenodd" clip-rule="evenodd" d="M26.2432 1.17909C26.3604 1.00931 26.6914 0.907209 27.0706 0.928275C27.4062 0.946687 27.7653 1.10133 27.7245 1.27201C27.7169 1.30495 27.7066 1.33582 27.6945 1.36491L27.6961 1.36516L27.6976 1.3652L27.6894 1.37648C27.6643 1.4308 27.6298 1.47948 27.5786 1.52549C27.5136 1.61364 27.4509 1.70209 27.3889 1.79085C27.4785 1.78907 27.5699 1.79144 27.6625 1.79945C27.7584 1.68548 27.8549 1.57179 27.9508 1.45752C28.0537 1.33551 28.1261 1.1788 28.3294 1.0844C28.5893 0.963891 29.0408 0.938963 29.358 1.02504C29.6929 1.11586 29.8125 1.27734 29.7395 1.4504C29.7026 1.53866 29.5755 1.60009 29.4185 1.63869L29.4015 1.64273L29.2805 1.77571C29.3177 1.76828 29.3561 1.76146 29.3976 1.75583C29.4627 1.74692 29.5268 1.74128 29.5894 1.7389C29.7619 1.59376 29.952 1.45277 30.1481 1.31445C30.3738 1.15534 30.815 1.08768 31.1851 1.18829C31.5161 1.27823 31.6941 1.51451 31.4568 1.66974C31.2765 1.78758 31.1058 1.9078 30.9375 2.0292C30.9663 2.03157 30.995 2.03453 31.0226 2.0384C31.0356 2.03039 31.0489 2.02237 31.0628 2.01435C31.2465 1.90868 31.4598 1.82943 31.6792 1.74157C31.8844 1.65906 31.9791 1.52935 32.2487 1.46671C32.5883 1.38805 32.9974 1.42575 33.1995 1.58248C33.6328 1.91818 32.9054 2.16336 32.44 2.36669C32.8446 2.24944 33.2661 2.14228 33.6982 2.04967C33.9412 1.99774 34.1878 1.94757 34.4384 1.90423C34.81 1.84012 35.1105 1.86063 35.4155 1.97993C35.5517 2.03335 35.6191 2.15003 35.5565 2.22777C35.4352 2.37678 35.2433 2.46731 34.9071 2.51035C34.6705 2.54063 34.4284 2.56111 34.1918 2.59286C33.7953 2.64569 33.4104 2.71012 33.037 2.79055C33.0639 2.79827 33.0897 2.80658 33.1133 2.81608C33.392 2.77423 33.6758 2.73801 33.9609 2.70714C34.4338 2.65567 34.915 2.62088 35.3985 2.59912L35.5592 2.59219C36.1387 2.56636 36.8356 2.51871 37.1915 2.77631C37.3083 2.86119 37.321 3.00129 37.1915 3.08529C36.9433 3.24677 36.6964 3.27882 36.2861 3.2818C36.69 3.30168 37.0934 3.32632 37.495 3.35511C37.7719 3.3747 38.0484 3.3969 38.3241 3.42155L38.4615 3.43406C38.7974 3.46523 39.172 3.48333 39.4601 3.57358C40.0892 3.77066 39.7939 4.15446 39.097 4.19541C38.7602 4.215 38.3861 4.14881 38.0557 4.11794C37.7346 4.08797 37.4127 4.06156 37.0889 4.0384C36.9215 4.02622 36.7539 4.01555 36.586 4.00575C36.9279 4.02861 37.2674 4.06095 37.5979 4.10667L37.6899 4.11953C38.3287 4.20995 39.1911 4.35394 39.3905 4.67093C39.5112 4.86356 39.1808 5.03157 38.7807 5.04285C38.4085 5.05324 38.0984 4.95024 37.7828 4.87425C37.5525 4.81904 37.3186 4.77778 37.0704 4.74246C36.8141 4.70596 36.5527 4.67568 36.2894 4.65105C36.5118 4.70798 36.7288 4.77056 36.9367 4.84056L37.0323 4.87337C37.5855 5.0647 38.4288 5.36095 38.2339 5.71961C38.1725 5.8327 37.9011 5.94074 37.6402 5.92916C36.9612 5.89978 36.5866 5.56407 36.0746 5.38419C35.9408 5.3373 35.7943 5.291 35.6409 5.24587C36.4171 5.67568 37.0347 6.17256 37.5047 6.68577C38.5371 7.81482 38.854 8.86042 38.8615 10.0743L38.8618 10.112C38.8631 10.7816 38.8304 11.4635 38.69 12.1301C38.5595 12.746 38.3205 13.3539 37.7186 13.9116C36.7106 14.847 34.7461 15.5753 32.5795 15.8525C30.1686 16.1612 27.4739 15.9199 25.4991 15.2076C24.9953 15.0259 25.6635 14.6315 26.1779 14.7992C28.2335 15.4684 30.8916 15.6805 33.2507 15.2274C35.122 14.8683 36.6286 14.0958 37.2674 13.2061C37.6738 12.6402 37.7921 12.0367 37.9374 11.4469L37.9471 11.4077C38.1005 10.7909 38.1892 10.1698 38.1879 9.54894C38.1861 8.39577 37.8294 7.44652 36.7366 6.40053C36.2228 5.90779 35.5559 5.4522 34.7594 5.05235C34.5177 5.07521 34.2607 5.04315 34.0165 5.03098C33.8919 5.02475 33.7672 5.01881 33.6425 5.01347C33.7699 5.0517 33.8949 5.09144 34.0175 5.13213L34.1784 5.18603C34.6826 5.35358 35.3217 5.54441 35.1922 5.86831C35.1571 5.95588 34.9691 6.03632 34.787 6.05621C34.1264 6.12922 33.6725 5.83122 33.2264 5.65431C32.8382 5.50055 32.4324 5.36283 32.0188 5.22481C31.9246 5.19364 31.8302 5.16247 31.7349 5.1316C31.8245 5.18005 31.9113 5.22925 31.9964 5.27891L32.1219 5.35278C32.5017 5.57348 33.0494 5.86035 32.7111 6.14644C32.6152 6.22718 32.4106 6.2809 32.2124 6.27912C31.531 6.27259 31.2598 5.91344 30.9403 5.68666C30.6652 5.49224 30.3668 5.3091 30.0579 5.12596C29.9728 5.0758 29.8872 5.02563 29.8004 4.97547C28.369 5.0099 26.9426 5.09776 25.5412 5.23816C24.5786 5.33463 23.6318 5.45963 22.6919 5.59643L22.6138 5.60796C22.1051 5.684 21.581 5.78129 21.2146 5.94817C21.1622 6.06313 21.2022 6.18438 21.2524 6.29919L21.2914 6.38707C21.4521 6.75455 21.5617 7.11525 21.4797 7.49253C21.3946 7.88167 21.1422 8.23164 20.8342 8.59316C20.6883 8.76353 20.5373 8.73266 20.4856 8.91552C20.446 9.05478 20.4705 9.19855 20.4977 9.33899L20.5204 9.45804C20.577 9.76987 20.6057 10.11 20.1654 10.3673C20.0971 10.4068 19.9506 10.391 19.9019 10.3516C19.8828 10.3358 19.8622 10.3207 19.8398 10.3061C19.6277 10.1634 19.3024 10.0821 18.9302 10.0506C18.883 10.0467 18.9015 10.0173 18.9411 10.0149C19.2555 9.99766 19.5536 10.0342 19.8069 10.1096C19.6867 9.91691 18.7571 10.0106 18.4518 10.0481L18.4412 10.0493C18.0601 10.0968 17.6996 10.1741 17.3818 10.2833C16.7425 10.503 16.373 10.8455 16.3915 11.2144C16.4101 11.5771 16.8135 11.9123 17.5065 12.0859C17.8409 12.1696 18.2212 12.2099 18.5998 12.2082C18.9947 12.2064 19.3463 12.1259 19.7421 12.1373C19.9709 12.1438 20.1461 12.2578 20.0138 12.3572C19.9255 12.4237 19.8105 12.4759 19.6776 12.5159C20.0017 12.863 20.4154 13.194 20.8923 13.4993C21.1562 13.6688 21.4554 13.8253 21.7847 13.9681C22.0416 14.0796 22.5987 14.2088 22.5672 14.3949C22.5563 14.462 22.4816 14.5029 22.3499 14.5279C21.9405 14.6056 21.4424 14.338 21.1686 14.2089L21.1468 14.1987C20.8054 14.0408 20.4941 13.8663 20.2229 13.681C19.7421 13.3521 19.4437 12.9813 19.3203 12.592C18.6636 12.6837 17.7942 12.5977 17.2584 12.4852C15.5745 12.132 15.0241 11.0791 16.0476 10.378C16.2458 10.2423 16.4938 10.1263 16.7764 10.0325C16.7144 10.0168 16.6562 9.99654 16.6044 9.97098C16.318 9.82969 16.1154 9.64543 15.9145 9.47546L15.8903 9.45514C15.7119 9.30554 15.5436 9.15359 15.3858 8.9993L15.3271 8.94133C14.9748 8.58959 14.6661 8.43584 14.4148 8.066C14.1732 7.70922 13.9827 7.3456 13.8593 6.97576L13.8265 6.87788C13.7551 6.66327 13.6876 6.43379 13.7397 6.2159C13.3811 6.27021 13.0205 6.30376 12.6657 6.22213C12.4317 6.16841 12.3025 6.01169 12.3825 5.89918C12.4407 5.81638 12.5378 5.75137 12.6612 5.70031C12.5877 5.6831 12.5186 5.66113 12.4579 5.63679L12.4049 5.61546C12.19 5.52875 12.1747 5.36401 12.3051 5.25538C12.3179 5.24499 12.3307 5.2343 12.3428 5.22391C12.4669 5.12091 12.7232 5.05354 12.9764 5.05532C13.0173 5.05562 13.0582 5.05562 13.0998 5.05532C12.9815 5.04315 12.8658 5.02445 12.7558 4.99298C12.2597 4.8514 12.3224 4.4676 12.9227 4.39992C13.1746 4.37174 13.4527 4.38331 13.7301 4.41359C13.7199 4.41091 13.7097 4.40824 13.6994 4.40527C13.4898 4.34561 13.3139 4.22896 13.3338 4.10934C13.3555 3.97696 13.4475 3.88256 13.6994 3.81312C13.9181 3.75315 14.2275 3.74752 14.4449 3.81312C14.6335 3.8704 14.8182 3.93362 14.9959 4.00159C14.8176 3.89978 14.6629 3.78907 14.6002 3.67152C14.5229 3.5252 14.652 3.3658 14.9359 3.28862C15.1622 3.22718 15.4013 3.234 15.6148 3.2815C15.6033 3.20462 15.6436 3.12626 15.7535 3.0568C15.9786 2.91436 16.3877 2.8324 16.7438 2.9363C16.7905 2.94995 16.8531 2.9734 16.9139 3.00219C16.7956 2.82736 16.9023 2.64392 17.3057 2.56497C17.5519 2.51659 17.885 2.54092 18.0985 2.62433C17.963 2.28387 19.0452 2.03365 19.4658 2.38539C19.5614 2.46507 19.6559 2.54897 19.7403 2.6348L19.7715 2.66707L19.7748 2.66648L19.7533 2.64289L19.7312 2.61928C19.6144 2.49313 19.4652 2.36193 19.4244 2.2251C19.3645 2.02267 19.5587 1.83063 20.0329 1.80094C20.278 1.7855 20.5504 1.83716 20.7147 1.92742C20.6257 1.61335 21.3813 1.38509 21.9254 1.61959C22.1829 1.73059 22.3206 1.89296 22.484 2.03543C22.5769 2.11586 22.6713 2.19601 22.7642 2.27675C22.7878 2.26369 22.8132 2.25063 22.8402 2.23787C22.7028 2.04671 22.596 1.85081 22.5058 1.65371C22.4201 1.46791 22.6202 1.27497 23.0332 1.22246C23.4085 1.17434 23.8784 1.28182 23.9622 1.46733C24.0209 1.59792 24.0908 1.72707 24.1674 1.85556C24.2197 1.84961 24.2715 1.84546 24.3226 1.84249C24.3272 1.81835 24.332 1.79408 24.3371 1.76994L24.3574 1.68408C24.4022 1.48789 24.4473 1.26395 24.6679 1.09717C25.0446 0.812215 26.0099 0.930354 26.0202 1.26725C26.026 1.44149 25.8732 1.61423 25.8199 1.7867C25.7969 1.86179 25.7836 1.93777 25.776 2.01376C25.8789 1.76146 26.0202 1.51243 26.1836 1.26725C26.203 1.23786 26.2233 1.20848 26.2432 1.17909ZM17.9146 10.9084C18.7617 10.8476 19.5357 11.0668 20.0377 11.3741C20.1291 11.4302 20.0689 11.5095 19.9866 11.5567C19.927 11.5914 19.8471 11.5956 19.7569 11.6009C19.6534 11.6071 19.5224 11.5682 19.477 11.5264C19.1541 11.2272 18.5783 11.0381 17.9146 10.9218C17.9024 10.9197 17.8986 10.9095 17.9146 10.9084ZM19.0885 5.54763L19.1142 5.53483C19.2855 5.45228 19.0146 5.32619 18.8428 5.40893C18.6621 5.49601 18.5417 5.6018 18.4261 5.70901C18.316 5.81124 18.6467 5.90153 18.7574 5.79892L18.8077 5.75228C18.8869 5.67975 18.9711 5.60812 19.0885 5.54763ZM16.7099 5.3782C16.9528 5.35921 16.8498 5.18755 16.6079 5.20649C16.2945 5.23102 15.9823 5.25888 15.6689 5.28343C15.426 5.30243 15.529 5.47408 15.7709 5.45517C16.0843 5.43062 16.3964 5.40275 16.7099 5.3782ZM31.1814 4.20631C30.9469 4.16995 30.8462 4.34191 31.0795 4.37806C31.402 4.42801 31.7219 4.47922 32.0281 4.54858C32.249 4.59869 32.4436 4.44513 32.2215 4.3948C31.8859 4.31866 31.5355 4.26117 31.1814 4.20631ZM16.6544 3.97549C16.4252 3.93294 16.3257 4.10512 16.5525 4.14724L17.381 4.30108C17.6102 4.34365 17.7097 4.1715 17.483 4.12938L16.6544 3.97549ZM34.0746 3.55734L34.0444 3.5485C33.8365 3.48599 33.644 3.64009 33.8507 3.70228C33.9721 3.73877 34.1194 3.76351 34.2305 3.80698L34.2538 3.81658C34.4332 3.89525 34.705 3.76957 34.5249 3.69064C34.3933 3.63296 34.2269 3.60084 34.0746 3.55734Z" fill="#595BD4"/>
<path fill-rule="evenodd" clip-rule="evenodd" d="M27.7112 12.8072C28.4941 12.3849 29.8125 12.3554 30.9049 12.461C31.6057 12.5289 32.2881 12.6418 33.0001 12.6836C33.3327 12.7031 33.6686 12.709 34.0036 12.7062C34.3325 12.7033 34.662 12.6725 34.9901 12.6783C35.0403 12.6791 35.0594 12.7099 35.0158 12.7224C34.5658 12.8506 33.96 12.8918 33.4289 12.9169C33.4304 12.9352 33.4329 12.953 33.4383 12.968C33.4528 13.0083 33.4661 13.0483 33.4767 13.0889C33.5009 13.1804 33.5279 13.2715 33.5548 13.3628C33.6078 13.5424 33.6244 13.7277 33.7176 13.9042L33.7339 13.9336C33.7557 13.9706 33.7606 14.0041 33.7533 14.0342L33.7748 14.0298L33.8432 14.0143L33.888 14.0046C34.0511 13.9694 34.2069 13.9438 34.3991 13.9524C34.5452 13.9588 34.6678 14.005 34.6687 14.0775C34.6723 14.4028 33.7285 14.5073 33.1887 14.5696L33.0304 14.5876C32.3429 14.6655 31.6414 14.7336 30.9346 14.7501C29.8004 14.7762 28.5258 14.6308 27.7838 14.2038C27.0915 13.8052 26.9647 13.21 27.7112 12.8072ZM32.8618 14.1734C32.7429 13.684 31.4472 13.657 31.0744 13.9674C30.9088 13.5347 28.462 13.93 28.6532 14.0161C29.3786 14.3422 30.4791 14.3716 31.4251 14.3112C31.9071 14.2804 32.3892 14.2304 32.8618 14.1734ZM31.4239 12.8904L31.0983 12.8686L30.97 12.8603C30.1623 12.8102 29.2542 12.7842 28.59 13.0246C28.3476 13.1124 28.2111 13.2269 28.1603 13.3497C28.7885 13.3065 29.4191 13.2735 30.0516 13.2461L30.224 13.2386C30.6198 13.2221 31.0154 13.2047 31.4109 13.1864L31.6917 13.1732L31.9725 13.1596C32.0714 13.1548 32.7375 13.1389 32.8628 13.1496C32.8761 13.0974 32.8936 12.9843 32.9218 12.9335C32.4485 12.9409 31.9773 12.9246 31.5071 12.8955L31.4239 12.8904ZM32.9236 10.7021C33.4062 10.8384 34.1419 11.156 33.6226 11.4938C33.0113 11.7917 32.1311 11.4501 31.6974 11.2958C31.2953 11.176 30.8435 11.4838 31.2166 11.6236C34.3507 12.7009 35.6225 10.7378 33.1678 10.5419C32.8975 10.5204 32.7971 10.66 32.9236 10.7021ZM33.7875 11.2761L33.8108 11.2702L33.8184 11.268C33.832 11.2639 33.8235 11.2643 33.7927 11.2694L33.7693 11.2732V11.2807C33.7754 11.2791 33.7818 11.2778 33.7875 11.2761ZM27.6047 10.0656V10.0589C27.6056 9.86973 27.8429 9.43751 28.4299 9.43751C28.7964 9.43751 29.0191 9.73168 29.0575 10.0348L29.059 10.0471C29.076 10.2357 28.9646 10.6476 28.4299 10.6476C27.8895 10.6476 27.6101 10.2575 27.6047 10.0656ZM36.2453 10.0062V9.99964C36.2444 9.81032 36.0071 9.37814 35.4201 9.37814C35.0627 9.37814 34.8421 9.65781 34.7955 9.95273L34.7925 9.97548C34.7692 10.1576 34.8733 10.5884 35.4201 10.5884C35.9605 10.5884 36.2398 10.1981 36.2453 10.0062ZM27.9394 8.14699C28.4184 8.11319 29.0527 8.17741 29.276 8.40353C29.3755 8.50427 29.2578 8.61567 29.007 8.62125C28.4009 8.63473 27.8571 8.57209 27.3251 8.75509C27.0963 8.83386 26.9036 8.94292 26.7423 9.0517L26.6812 9.09309L26.6303 9.1272C26.5208 9.20207 26.417 9.28343 26.433 9.37376C26.4379 9.4005 26.3788 9.42588 26.3232 9.42481C25.9743 9.41817 25.9367 9.2152 25.9827 9.09329C26.0681 8.86705 26.3038 8.65467 26.6306 8.48361C26.9741 8.30398 27.4271 8.18317 27.9394 8.14699ZM34.5365 8.42157C34.8669 8.32299 35.2893 8.28511 35.6761 8.29964C36.4389 8.32816 37.7189 8.62925 37.5504 9.06188C37.4983 9.1953 37.0986 9.26571 36.8632 9.19168C36.6099 9.11211 36.5485 8.98842 36.3599 8.88441C36.2096 8.80132 36.0189 8.74121 35.815 8.69002C35.6137 8.63951 35.381 8.6089 35.1529 8.59775L35.1147 8.59607C34.9773 8.59065 34.2835 8.59209 34.3855 8.71234C34.4054 8.73588 34.3301 8.75451 34.2953 8.7367C34.0825 8.62747 34.3234 8.48515 34.5365 8.42157Z" fill="#595BD4"/>
</svg>
