<svg xmlns="http://www.w3.org/2000/svg" version="1.1" xmlns:xlink="http://www.w3.org/1999/xlink" xmlns:svgjs="http://svgjs.dev/svgjs" width="1000" height="1000" viewBox="0 0 1000 1000"><rect width="1000" height="1000" fill="#ffffff"></rect><g transform="matrix(0.7,0,0,0.7,150.0000000000001,106.25)"><svg viewBox="0 0 320 360" data-background-color="#ffffff" preserveAspectRatio="xMidYMid meet" height="1125" width="1000" xmlns="http://www.w3.org/2000/svg" xmlns:xlink="http://www.w3.org/1999/xlink"><g id="tight-bounds" transform="matrix(1,0,0,1,0,0)"><svg viewBox="0 0 320 360" height="360" width="320"><g><svg></svg></g><g><svg viewBox="0 0 320 360" height="360" width="320"><g><path xmlns="http://www.w3.org/2000/svg" d="M20.961 227.22l3.726 4.658-1.863-6.056c-0.466-2.795-3.726 0.466-1.863 1.398M25.153 224.425c1.397 2.329 2.795 4.658 2.795 6.987 0 3.261 2.795 4.658 5.123 5.589-3.261-3.726-5.124-13.974-7.918-12.576M204.017 26.929c7.918 0 15.371-0.932 23.756 0.931 20.495 5.124 37.729 15.371 49.374 29.811l32.606 52.169c1.397 13.042 4.192 27.482 3.726 43.319 3.261 0 2.795-4.658 6.521-5.59-3.726 9.316-5.59 20.961-6.521 34.469-2.329-7.453 0-18.632 0.466-24.687-3.261 5.124-5.124 1.397-5.124-0.932 0.466-3.726-1.397-3.261-2.795-4.658-5.124-4.658-8.384-9.782-12.11-17.7 2.329-6.055 2.795-14.905-4.658-19.563-2.329-1.397-5.124-3.726-6.521-7.453-1.863-5.124-5.124-11.179-4.193-19.097 0.466-2.329-6.987 5.124-11.179 1.863-18.166-12.576-36.332-27.016-58.224-39.127-11.645 0-20.029-4.192-24.221-9.316-3.726-4.658-0.932-10.713 4.658-11.179 3.261 0 6.987-0.932 9.782 0.932 0.466-1.863 2.329-4.192 4.657-4.192M157.904 16.215l0.932 0.466c4.658 0.932 6.987 7.453 12.11 5.124 0 3.261 0.466 6.521-0.466 8.85-1.397 3.726-5.59 3.726-8.85 3.726-31.208-1.863-49.374 11.179-68.471 22.358-5.124 3.261-10.713 5.59-14.906 9.782-20.029 18.632-41.921 35.866-47.045 70.335l-4.192 38.195c-0.466 4.192-5.124 8.384-4.192 13.508l3.26 22.824c-3.261-3.261-5.124 0.932-4.192 2.795 0.466 1.397 2.329 6.055 5.124 1.863 3.726 6.987 7.453 20.495 12.576 26.55 15.837 18.632 36.332 35.4 53.101 52.169 4.192-0.932 7.453-0.932 8.384-3.727 1.397 2.795-1.397 5.59-3.726 6.056 7.453 4.658 15.837 8.85 27.016 9.781 14.44 0.932 27.948 3.261 40.524 6.522 6.521-1.863 13.042-2.795 20.029-3.261 2.329 0 3.726-3.726 6.521-4.658l0.466-4.658c2.795 4.192 2.329-1.397 0.466-4.192 3.261 2.795 4.192 5.124 5.589 6.987 0-1.397 3.726-6.521 3.727-0.466l0.931-6.055c1.397-0.932 1.863 5.124 3.261 0.931 1.397-4.192 4.192-0.932 6.987-2.329-0.932 1.863-0.466 5.59 2.794 3.261l3.727-3.261c2.329 5.59 6.055 3.261 7.918 2.329 20.495-13.042 40.99-28.413 60.553-43.784l-0.466 6.055 2.329-7.453c2.329 2.329 4.192 0.466 5.124-0.931 2.795-4.658 6.521-9.316 12.577-13.508-7.453 20.029-16.303 35.866-27.482 48.908l-4.658 5.59c0 3.261-0.932 7.453-4.658 7.918-1.863 0.466-5.59-0.932-8.384 1.863-1.397 1.863 3.261 5.59-0.466 2.795-3.261-2.329-6.521 0-10.248 0.932-2.795 0.932 1.863 3.726 2.795 5.589 0.932 1.863 1.863 3.726 1.398 6.056l-5.124-5.59c-6.055 3.261-9.782 9.316-14.906 13.974-2.329 1.863-1.397 5.124-1.397 7.918-3.261 0-6.987-0.932-8.85 0.932-1.397 1.863-0.932 4.658-0.932 7.453-4.658-0.466-5.124-7.453-9.315-6.056-4.192 0.932-8.85 1.397-12.577 3.727 2.795 5.59-4.658 2.329-3.726 3.26-6.987-4.192-13.042-7.453-20.495-4.658-15.837-5.124-35.4-2.795-49.84-0.931 0-2.329 0.466-4.658-0.466-5.124-0.932 2.329-3.726 1.397-3.26 1.397-8.85-6.055-17.7-9.782-27.016-14.905-8.384 0.932-16.303-3.261-18.632-5.59-6.521-6.055-13.974-2.795-20.029-4.192-13.042-3.261-17.7-16.769-19.098-26.084-0.932-4.658-4.658-6.521-6.055-6.056-6.055-19.563-15.371-37.263-22.824-55.429-1.863-4.658-1.397-9.316-1.397-14.44 2.329 0.932 4.658 0.466 4.192-2.794-2.329-15.371-7.918-27.016-13.974-38.195 3.261-15.837 3.726-34.469 11.179-48.443 6.521-12.576 18.632-19.098 27.016-29.811 2.795-3.726 2.795-8.85 5.59-12.11 9.316-9.316 18.632-19.098 28.879-27.482 4.658-3.726 10.247 0 17.234-1.397 2.329-8.384 11.645-15.837 20.495-13.508 3.726 0.932 11.179-8.85 13.508-9.782 3.726-1.397 1.863 3.726 1.863 6.987 8.85-6.987 20.961-10.713 32.14-14.906" fill="#ee3e38" fill-rule="nonzero" stroke="none" stroke-width="1" stroke-linecap="butt" stroke-linejoin="miter" stroke-miterlimit="10" stroke-dasharray="" stroke-dashoffset="0" font-family="none" font-weight="none" font-size="none" text-anchor="none" style="mix-blend-mode: normal" data-fill-palette-color="tertiary"></path></g><g transform="matrix(1,0,0,1,64,157.7344537815126)"><svg viewBox="0 0 192 44.531092436974795" height="44.531092436974795" width="192"><g><svg viewBox="0 0 192 44.531092436974795" height="44.531092436974795" width="192"><g><svg viewBox="0 0 192 44.531092436974795" height="44.531092436974795" width="192"><g><svg viewBox="0 0 192 44.531092436974795" height="44.531092436974795" width="192"><g id="textblocktransform"><svg viewBox="0 0 192 44.531092436974795" height="44.531092436974795" width="192" id="textblock"><g>
<svg viewBox="0 0 192 44.531092436974795" height="44.531092436974795" width="192"><g transform="matrix(1,0,0,1,0,0)"><svg width="192" viewBox="1.5 -33.5 148.74000549316406 34.5" height="44.531092436974795" data-palette-color="#ee3e38"><path d="M35.45-32.5L35.75-30.9 31.5-29.35 31.5 0 26.35 0.55 8.6-27.85 9.5-20.9 9.5-2.85 13.95-2.35 13.9 0 1.8 0 1.5-1.6 5.75-3.15 5.75-29.75 2.5-30.15 2.55-32.5 11.45-32.5 28.65-4.8 27.7-11.6 27.7-29.6 22.85-30.15 22.9-32.5 35.45-32.5ZM52.8-33.5L52.8-33.5Q59.6-33.5 63.97-28.55 68.35-23.6 68.35-15.85L68.35-15.85Q68.35-8.3 64.1-3.65 59.85 1 53.2 1L53.2 1Q46.45 1 42.1-3.75 37.75-8.5 37.75-16.05L37.75-16.05Q37.75-23.75 42-28.63 46.25-33.5 52.8-33.5ZM47.4-29.2L47.4-29.2Q45.35-27.65 44.1-24.18 42.85-20.7 42.85-16.75L42.85-16.75Q42.85-10.35 45.9-6.45 48.95-2.55 54.1-2.55L54.1-2.55Q55.95-2.55 57.95-3.05L57.95-3.05Q60.3-4.55 61.75-7.95 63.2-11.35 63.2-15.6L63.2-15.6Q63.2-22 60.17-26.03 57.15-30.05 52.2-30.05L52.2-30.05Q49.9-30.05 47.4-29.2ZM97.64-32.8L97.64-32.8 97.69-31.05Q97.69-27.4 97.14-24.35L97.14-24.35 94.44-24.35 93.8-29.35 85.59-29.65 85.59-3 91.3-2.35 91.25 0 75.8 0 75.5-1.6 80.94-3.3 80.94-29.65 72.75-29.35 72.09-24.35 69.39-24.35Q68.84-27.4 68.84-31.05L68.84-31.05 68.89-32.8Q75.09-32.6 83.3-32.6L83.3-32.6Q91.59-32.6 97.64-32.8ZM120.74-9.15L123.39-8.95Q123.54-4 122.79 0L122.79 0 99.49 0 99.19-1.6 103.44-3.15 103.44-29.9 99.89-30.1 99.94-32.5 122.79-32.5 122.84-30.8Q122.84-27.3 122.29-24.25L122.29-24.25 119.59-24.25 118.99-28.85 108.09-29.6 108.09-17.7 119.54-18.55 119.54-14.2 108.09-14.7 108.09-3.25 119.44-3.75 120.74-9.15ZM150.24-8.6L150.24-8.6Q150.24-4.4 147.09-1.7 143.94 1 139.19 1L139.19 1Q136.49 1 133.34 0.08 130.19-0.85 128.64-2.45L128.64-2.45 128.59-4.2Q128.59-7.9 129.14-10.9L129.14-10.9 131.84-10.9 132.54-4.9Q135.99-2.3 140.89-2.3L140.89-2.3 142.59-2.4Q145.49-3.95 145.49-7.5L145.49-7.5Q145.49-10.55 141.99-12.55L141.99-12.55 133.89-16.75Q128.84-19.75 128.84-24.45L128.84-24.45Q128.84-28.45 132.14-30.98 135.44-33.5 140.49-33.5L140.49-33.5Q143.99-33.5 148.74-31.95L148.74-31.95 148.79-30.2Q148.79-26.55 148.24-23.5L148.24-23.5 145.54-23.5 145.04-28.05Q142.19-30.25 138.19-30.25L138.19-30.25 135.89-30.05Q133.49-28.6 133.49-25.5L133.49-25.5Q133.49-22.65 136.94-20.75L136.94-20.75 144.94-16.7Q150.24-13.65 150.24-8.6Z" opacity="1" transform="matrix(1,0,0,1,0,0)" fill="#ee3e38" class="wordmark-text-0" data-fill-palette-color="primary" id="text-0"></path></svg></g></svg></g></svg></g></svg></g><g></g></svg></g></svg></g></svg></g></svg></g><defs></defs></svg><rect width="320" height="360" fill="none" stroke="none" visibility="hidden"></rect></g></svg></g></svg>